<svg xmlns="http://www.w3.org/2000/svg" buffered-rendering="static" xmlns:xlink="http://www.w3.org/1999/xlink" width="501px" height="501px" viewBox="0 0 501 501">
<desc>
This file was created by http://defghi1977.html.xdomain.jp/tech/img2svg3/img2svghsl.htm at Mon Mar 13 2023 13:35:28 GMT+0900 (日本標準時)
</desc>
<defs>
<g id="hsl" style="isolation:isolate;">
<g id="l">
<path d="M202.5 136.6c-2.1-.4-5.1 .3-10 2.3-3.8 1.6-13.5 6.4-21.5 10.6-8 4.2-18.3 9.9-23 12.5-4.7 2.7-13.2 6.8-19 9.1-5.8 2.2-12.1 4.9-14 5.9-1.9 .9-5.5 3.9-7.9 6.6-2.4 2.7-10.9 13.7-18.9 24.4-8 10.7-17.6 23.6-21.3 28.5-3.7 5-13.9 16.7-22.7 26-8.8 9.4-19 19.5-22.7 22.5-3.8 3-10.1 8.3-14.2 11.8-4 3.4-7.3 6.9-7.3 7.7 0 .9 4.7-2.4 11.2-7.7 6.2-5.1 15.9-13.8 21.6-19.3 5.7-5.5 15.2-15.4 21.2-22 6-6.6 18.2-21.9 27.1-34 8.9-12.1 19.6-26.2 23.8-31.4 4.2-5.2 8.7-9.9 10.1-10.6 1.4-.7 8.2-3.6 15.3-6.4 7-2.8 13-4.9 13.5-4.7 .4 .3-.3 .7-1.5 1-1.3 .3-2.3 1.1-2.3 1.6 0 .6 .5 1 1 1 .6 0 6.1-2.5 12.3-5.6 6.1-3.1 16.4-8.5 22.7-11.9 6.3-3.5 12.6-6.7 14-7 2-.6 6.1 1.5 22 11 10.7 6.4 20.6 12.7 21.8 13.9 1.3 1.1 3 3.2 3.7 4.6 .7 1.4 3.1 10 5.4 19.3 2.3 9.2 4.1 17.4 4.1 18.2 0 .8-.7 1.7-1.5 2-.8 .3-3.5 .5-6 .5l-4.5 0-5.3-5.2c-2.9-2.9-7.5-9-10.2-13.6l-5-8.3-10-4.4c-9-3.9-10.2-4.2-12-3-1.1 .8-8 4.8-15.2 9-7.3 4.1-13.3 8-13.3 8.5 0 .6 .5 1 1 1 .6 0 4.2-1.8 8-4 3.9-2.2 7.2-3.9 7.5-3.7 .2 .1-1.6 1.7-4 3.5-3.7 2.6-4.8 4.2-6 8.5-1 3.4-1.2 5.6-.5 6.2 .6 .7 1.1 .5 1.4-.5 .2-.8 1.1-3.5 2-6 1-2.8 2.6-5.1 4.3-6.1 1.6-.9 6.6-4.5 11.3-7.9l8.5-6.2 7.5 3.6c4.1 2 8.2 4.6 9.1 5.8 .9 1.3 1.9 4.6 2.2 7.3l0.6 5-2.2-2c-1.2-1.1-3.5-3.2-5.2-4.8l-3-2.8-4 1c-2.2 .6-6.4 1.1-9.2 1.1l-5.3 0-6.7 6.3c-3.8 3.5-8.4 7.6-10.3 9.2-2 1.6-4.9 5.7-6.6 9.4-1.8 3.6-3.9 7.5-4.7 8.6l-1.4 2-2.2-5.7c-1.1-3.2-2.6-7.9-3.1-10.5-.6-2.7-.8-6.1-.4-7.8 .3-1.6 1.7-5 3-7.5 1.3-2.5 2.2-4.7 1.8-5-.3-.3-1.7 .7-3 2.3-1.3 1.5-2.8 4.4-3.4 6.5-.5 2-1 5.4-1 7.5 0 2 .9 6.5 2.1 10 1.1 3.4 4.2 10.7 6.9 16.2 2.6 5.5 7.5 13.8 10.9 18.5 3.3 4.7 8.6 11.3 11.8 14.7l5.8 6.2 19.5 8.2c10.7 4.5 22.4 9.8 26 11.7 3.6 2 9.3 6.4 12.8 9.9l6.2 6.3-.6 3.3c-.3 1.7-.8 6.1-1.1 9.7-.3 3.6-.3 8.5 0 11 .4 2.5 1.8 6.3 3.3 8.5l2.6 4-1.9 1.3c-1 .7-2.2 1.2-2.8 1.2-.5 0-2.3-.9-4-1.9-1.6-1.1-5.7-5-9-8.7-3.7-4.2-9.5-9-15-12.7-4.9-3.2-11.7-7.1-15-8.7-3.3-1.6-9.8-4-14.5-5.3-4.7-1.4-12-3.2-16.2-4.1-4.3-.9-9.9-1.6-12.5-1.6-2.7 0-6.6 .6-8.8 1.3-2.2 .8-10.7 4.4-19 8-10.4 4.6-19.4 7.7-29.2 10.2-7.9 1.9-17.3 4.6-21 6.1-3.8 1.4-8.8 3.7-11.3 5.2-2.5 1.4-9.7 7.1-16 12.5-6.3 5.5-22.4 19.7-35.7 31.6-13.5 12.1-24.2 22.4-24.2 23.4-.1 1 7.3-5 19.7-16 10.8-9.8 25.1-22.5 31.7-28.3 6.6-5.8 14.5-12.6 17.5-15.2 3-2.5 8.2-5.9 11.5-7.5 3.3-1.7 9.6-4.2 14-5.6 4.4-1.5 12.1-3.5 17-4.6 5.1-1.1 14.6-4.3 22-7.5 7.2-3.2 16.6-7.1 21-8.9l8-3.1 8 1.2c4.4 .6 12.5 2.3 18 3.7 5.5 1.4 13.4 4.2 17.5 6.1 4.1 2 10.2 5.2 13.5 7.2 3.3 2 11.1 8.5 17.3 14.4 9.5 9.1 11.7 10.8 14.5 10.8 2 .1 4-.7 5.2-2 1.1-1.1 3-2.1 4.3-2 1.6 0 3.8-2.1 8.1-7.7 3.4-4.4 9.8-10.9 14.8-15 4.8-3.9 11.1-8.1 13.8-9.4 2.8-1.2 9.7-3.3 15.5-4.6 6.3-1.4 15.3-2.6 22.5-3l12-.5 22 6c12.1 3.3 24.9 6.5 28.5 7 3.6 .6 9.7 1.3 13.5 1.7 3.9 .4 7.9 1.1 9 1.5 1.1 .4 19.6 13.9 41 30 24.8 18.6 39.1 28.8 39.3 27.9 .2-.8 0-1.7-.5-2-.4-.3-12.5-9.3-26.8-19.9-14.3-10.6-30.9-23.2-37-27.9-6-4.7-12.1-9.1-13.5-9.8-1.4-.7-8.3-1.9-15.5-2.7-9.6-1-18.9-3.1-36-7.8l-23-6.3-10 .1c-6.4 .1-14.7 1.1-23 2.8-8.7 1.8-15.3 3.8-20 6.1-3.8 1.9-10.6 6.6-15 10.4-4.4 3.8-10.5 10-13.5 13.7-3 3.7-6.1 6.9-6.7 7.1-.7 .2-2.4-.9-3.8-2.4-1.4-1.6-3-4.8-3.6-7.3-.7-3.2-.7-7.2 .1-14 .7-6.5 2-11.4 3.9-15.5 1.5-3.3 4.6-8.2 6.7-11 2.2-2.7 5.7-6.3 7.9-8 2.2-1.6 12.5-6.5 23-10.8 10.4-4.2 20.6-8.8 22.5-10.1 1.9-1.2 6.4-4.9 9.9-8.2 3.5-3.2 8.5-8.8 11.2-12.4 2.7-3.6 7.8-12.3 11.4-19.5 3.5-7.1 7.1-15.9 8-19.5 .8-3.6 1.5-7.7 1.5-9.2 0-1.6-.4-2.8-1-2.8-.5 0-1.2 1-1.4 2.3-.3 1.2-.8 4.5-1.1 7.2-.4 2.8-2.6 9.2-5.1 14.3-2.4 5-4.7 9.2-5.1 9.2-.5 0-1.8-1-2.9-2.2-1.2-1.3-3.9-5.1-6-8.5-3.4-5.5-4.9-6.8-11.4-10.4-4.1-2.3-9-5.4-10.7-7-1.8-1.6-3.6-2.9-4-2.9-.5 0-6.2-.5-12.8-.9-7.2-.6-12.9-.6-14.2 0-1.3 .5-2.3 .6-2.3 .2 0-.5 .6-2.5 1.5-4.5 .8-2.1 2.1-3.8 2.8-3.8 .6 0 5-1.8 9.7-4.1 7-3.4 9.2-4 12.5-3.6 2.2 .3 6 1.7 8.5 3.1 2.5 1.4 6.5 3.2 9 4.1 3.6 1.1 4.9 2.2 6.5 5.5 1.1 2.2 2.5 4.1 3 4.1 .6-.1 .7-1.2 .3-3.1-.5-1.6-.7-3-.5-3 .1 0 2.2 .7 4.7 1.5 2.5 .8 4.6 1.5 4.8 1.5 .1 0 .2-.7 .2-1.5 0-1-1.6-1.8-4.2-2.4-2.4-.6-8.8-2.8-14.3-5.1-5.5-2.2-10.9-4.9-12-5.9-1.1-1-3-2.4-4.2-3-2-.9-3.6-.4-11.5 3.7-5.1 2.7-10.8 5.4-12.5 6-2.7 1-3.9 2.4-6.3 8-1.7 3.7-4.8 8.4-6.8 10.6-2 2.1-5.7 5.2-8.2 6.7-2.8 1.8-5.8 2.9-8 2.9-1.9 0-4.2-.5-5-1-.8-.5-1.6-2.7-1.7-5-.2-2.6 1.3-8.7 4.2-17.7 2.5-7.6 5.2-14.9 6-16.3 .8-1.4 10.8-8.6 22.7-16.4l21.3-13.8 5.5 .5c3 .3 12.3 3 20.5 6 8.3 3 21.9 7.2 30.3 9.3 13.2 3.4 15.4 3.7 16.2 2.4 .7-1.3 1.5-1.3 5.7-.2 2.6 .8 6.8 2.4 9.3 3.8 2.9 1.5 6.3 4.8 9.6 9.1 2.8 3.8 7.9 11.1 11.4 16.3 3.5 5.2 13.4 18.3 22 29 10.6 13.2 19.7 23.2 28.1 31.1 6.8 6.4 18.3 16.4 25.4 22.3 7.5 6.1 13.2 10.1 13.4 9.3 .2-.6-.8-2.1-2.1-3.2-1.4-1.1-8.3-6.8-15.4-12.7-7.1-5.8-17.7-15.3-23.5-21-5.8-5.6-16.9-18.2-24.5-27.8-7.7-9.6-18.9-24.7-24.9-33.4-6.1-8.8-12.6-17.2-14.5-18.8-2-1.7-7-3.9-12-5.4-4.7-1.4-12.1-3.7-16.5-5.1-4.4-1.5-16.3-6.1-26.5-10.3-10.2-4.2-22.8-9.1-28-10.9-6.2-2.2-10.7-3.2-13-2.9-1.9 .2-6 2.2-9 4.3-3 2.1-9.5 7.1-14.5 11.1-4.9 3.9-12.9 10.6-17.7 14.8-6.8 5.8-8.9 8.3-9.4 10.9l-.6 3.2-1.6-3.4c-1-1.9-9.5-11-18.9-20.3-9.5-9.2-18.5-17.4-20-18.2-1.6-.7-4.1-1.6-5.8-2ZM300.8 138c0.6 0 4.9 1.2 9.5 2.6 4.5 1.5 15.2 5.6 23.7 9.2 8.5 3.5 20.7 8.4 27 10.8 6.3 2.4 11.1 4.3 10.5 4.4-.5 0-7.1-1.6-14.5-3.5-7.4-2-20.5-6.1-29-9.1-8.5-3-17.3-5.6-19.5-5.6-2.2 0-5.1 .3-6.5 .7-1.4 .5-11.5 6.8-22.5 14-11 7.2-20.7 14-21.5 15-.8 1-3.2 6.8-5.2 12.9-3.1 9.4-3.6 10.4-3.2 6.1 .3-2.7 1-8.1 1.5-12 .6-3.8 1.3-7.5 1.7-8.1 .4-.6 3.6-3.7 7.2-6.9 3.6-3.2 12.4-10.5 19.5-16.2 7.2-5.8 14.6-11.3 16.5-12.3 1.9-1.1 4.1-1.9 4.8-2ZM200.8 139c2.5 0 5 .8 7.7 2.8 2.2 1.6 11.1 10 19.9 18.8 8.7 8.7 16.5 17.4 17.2 19.2 1 2.3 1.2 5.2 .7 10.5l-.7 7.2-2.2-9c-1.2-4.9-3.1-10.9-4.3-13.2-1.8-3.6-4-5.5-13.8-11.6-6.5-4.1-16.1-9.9-21.3-13-5.8-3.5-10.7-5.7-12.5-5.7-1.6 0-4.6 .8-6.5 1.8-1.9 1-11.7 6.2-21.7 11.5-10.1 5.3-18.5 9.5-18.8 9.2-.3-.3 3.7-2.8 8.8-5.7 5-2.8 17-9.1 26.5-14 12.4-6.4 18.2-8.8 21-8.8ZM187 189c0.3 0-.6 .9-2 2-1.4 1.1-2.9 2-3.5 2-.5 0 .4-.9 2-2 1.7-1.1 3.2-2 3.5-2ZM204.3 200.1c0.9 0 4.2 2 7.3 4.7 3.1 2.6 9.2 8.3 13.7 12.8 6.5 6.3 9 8.2 12.2 8.8 3.5 .7 4.2 .5 5.8-1.6 1-1.3 1.8-3.1 1.7-4 0-1 .5-1.8 1-1.8 .6 0 1 .7 1 1.5 0 .8 1.5 2.1 3.3 2.9 1.9 .8 4.4 1.2 6.1 .8 1.6-.4 3.4-1.4 4-2.3 .6-.9 2.5-2.3 4.1-3.2 1.7-.8 5.8-4.2 9.3-7.6 3.4-3.4 7.8-6.8 9.7-7.6 1.9-.8 4-1.3 4.5-1 .6 .3 5.8 .9 11.8 1.3l10.7 .8 3 2.8c1.7 1.6 6 4.3 9.8 6.2 5.6 2.9 7.3 4.3 10.3 9.2 2 3.1 5.2 7.4 7.3 9.5l3.6 3.8-3 5.5c-1.6 3-5.5 8.3-8.5 11.8-3 3.5-8.2 8.7-11.5 11.6-3.3 2.9-8.5 6.4-11.5 7.7-3 1.4-11.1 4.8-18 7.5-6.9 2.8-14.5 6-17 7.3-2.5 1.2-7.2 5.2-10.5 8.7-3.3 3.6-7.1 8.7-8.4 11.4-1.3 2.7-2.6 5.1-2.8 5.4-.2 .3-2.3-1.6-4.8-4.2-2.5-2.7-7.1-6.5-10.3-8.5-3.1-2.1-10.4-5.9-16.2-8.4-5.8-2.6-15.7-6.8-22-9.5-9.7-4-12.2-5.5-16-9.7-2.5-2.7-7.1-8.3-10.3-12.5-3.1-4.3-7.5-11.2-9.7-15.4l-4-7.8 3.9-6.7c2.2-3.8 4.2-7.7 4.4-8.8 .3-1.1 4.7-5.5 9.6-9.7 5-4.3 9.1-8.2 9.1-8.8 0-.5 1.7-1 3.8-1.1 2 0 5.5-.4 7.7-.8 2.2-.5 4.8-.9 5.8-1ZM220 204.5c0.5 1.1 .9 2.7 .9 3.5l0.1 1.5-1-1.5c-.5-.8-.9-2.4-.9-3.5l0-2 .9 2ZM231.8 217c1.5 1.1 4.6 2.3 7 2.5 2.3 .3 4.2 .7 4.2 1 0 .3-.2 1.2-.5 2-.3 .8-1.5 1.5-2.7 1.5-1.3 0-3.4-.4-4.7-.8-1.3-.4-3.2-2-4.2-3.7-1-1.6-1.9-3.3-1.9-3.7 0-.5 1.2 .1 2.8 1.2ZM253.8 221l3.7 .4-3 .4c-1.6 .1-3.3-.1-3.7-.5-.4-.4 1-.6 3-.3Z" style="fill:hsl(0,0%,0%);"/>
</g>
<g id="h" style="mix-blend-mode:color;">
<path d="M202.5 136.6c-2.1-.4-5.1 .3-10 2.3-3.8 1.6-13.5 6.4-21.5 10.6-8 4.2-18.3 9.9-23 12.5-4.7 2.7-13.2 6.8-19 9.1-5.8 2.2-12.1 4.9-14 5.9-1.9 .9-5.5 3.9-7.9 6.6-2.4 2.7-10.9 13.7-18.9 24.4-8 10.7-17.6 23.6-21.3 28.5-3.7 5-13.9 16.7-22.7 26-8.8 9.4-19 19.5-22.7 22.5-3.8 3-10.1 8.3-14.2 11.8-4 3.4-7.3 6.9-7.3 7.7 0 .9 4.7-2.4 11.2-7.7 6.2-5.1 15.9-13.8 21.6-19.3 5.7-5.5 15.2-15.4 21.2-22 6-6.6 18.2-21.9 27.1-34 8.9-12.1 19.6-26.2 23.8-31.4 4.2-5.2 8.7-9.9 10.1-10.6 1.4-.7 8.2-3.6 15.3-6.4 7-2.8 13-4.9 13.5-4.7 .4 .3-.3 .7-1.5 1-1.3 .3-2.3 1.1-2.3 1.6 0 .6 .5 1 1 1 .6 0 6.1-2.5 12.3-5.6 6.1-3.1 16.4-8.5 22.7-11.9 6.3-3.5 12.6-6.7 14-7 2-.6 6.1 1.5 22 11 10.7 6.4 20.6 12.7 21.8 13.9 1.3 1.1 3 3.2 3.7 4.6 .7 1.4 3.1 10 5.4 19.3 2.3 9.2 4.1 17.4 4.1 18.2 0 .8-.7 1.7-1.5 2-.8 .3-3.5 .5-6 .5l-4.5 0-5.3-5.2c-2.9-2.9-7.5-9-10.2-13.6l-5-8.3-10-4.4c-9-3.9-10.2-4.2-12-3-1.1 .8-8 4.8-15.2 9-7.3 4.1-13.3 8-13.3 8.5 0 .6 .5 1 1 1 .6 0 4.2-1.8 8-4 3.9-2.2 7.2-3.9 7.5-3.7 .2 .1-1.6 1.7-4 3.5-3.7 2.6-4.8 4.2-6 8.5-1 3.4-1.2 5.6-.5 6.2 .6 .7 1.1 .5 1.4-.5 .2-.8 1.1-3.5 2-6 1-2.8 2.6-5.1 4.3-6.1 1.6-.9 6.6-4.5 11.3-7.9l8.5-6.2 7.5 3.6c4.1 2 8.2 4.6 9.1 5.8 .9 1.3 1.9 4.6 2.2 7.3l0.6 5-2.2-2c-1.2-1.1-3.5-3.2-5.2-4.8l-3-2.8-4 1c-2.2 .6-6.4 1.1-9.2 1.1l-5.3 0-6.7 6.3c-3.8 3.5-8.4 7.6-10.3 9.2-2 1.6-4.9 5.7-6.6 9.4-1.8 3.6-3.9 7.5-4.7 8.6l-1.4 2-2.2-5.7c-1.1-3.2-2.6-7.9-3.1-10.5-.6-2.7-.8-6.1-.4-7.8 .3-1.6 1.7-5 3-7.5 1.3-2.5 2.2-4.7 1.8-5-.3-.3-1.7 .7-3 2.3-1.3 1.5-2.8 4.4-3.4 6.5-.5 2-1 5.4-1 7.5 0 2 .9 6.5 2.1 10 1.1 3.4 4.2 10.7 6.9 16.2 2.6 5.5 7.5 13.8 10.9 18.5 3.3 4.7 8.6 11.3 11.8 14.7l5.8 6.2 19.5 8.2c10.7 4.5 22.4 9.8 26 11.7 3.6 2 9.3 6.4 12.8 9.9l6.2 6.3-.6 3.3c-.3 1.7-.8 6.1-1.1 9.7-.3 3.6-.3 8.5 0 11 .4 2.5 1.8 6.3 3.3 8.5l2.6 4-1.9 1.3c-1 .7-2.2 1.2-2.8 1.2-.5 0-2.3-.9-4-1.9-1.6-1.1-5.7-5-9-8.7-3.7-4.2-9.5-9-15-12.7-4.9-3.2-11.7-7.1-15-8.7-3.3-1.6-9.8-4-14.5-5.3-4.7-1.4-12-3.2-16.2-4.1-4.3-.9-9.9-1.6-12.5-1.6-2.7 0-6.6 .6-8.8 1.3-2.2 .8-10.7 4.4-19 8-10.4 4.6-19.4 7.7-29.2 10.2-7.9 1.9-17.3 4.6-21 6.1-3.8 1.4-8.8 3.7-11.3 5.2-2.5 1.4-9.7 7.1-16 12.5-6.3 5.5-22.4 19.7-35.7 31.6-13.5 12.1-24.2 22.4-24.2 23.4-.1 1 7.3-5 19.7-16 10.8-9.8 25.1-22.5 31.7-28.3 6.6-5.8 14.5-12.6 17.5-15.2 3-2.5 8.2-5.9 11.5-7.5 3.3-1.7 9.6-4.2 14-5.6 4.4-1.5 12.1-3.5 17-4.6 5.1-1.1 14.6-4.3 22-7.5 7.2-3.2 16.6-7.1 21-8.9l8-3.1 8 1.2c4.4 .6 12.5 2.3 18 3.7 5.5 1.4 13.4 4.2 17.5 6.1 4.1 2 10.2 5.2 13.5 7.2 3.3 2 11.1 8.5 17.3 14.4 9.5 9.1 11.7 10.8 14.5 10.8 2 .1 4-.7 5.2-2 1.1-1.1 3-2.1 4.3-2 1.6 0 3.8-2.1 8.1-7.7 3.4-4.4 9.8-10.9 14.8-15 4.8-3.9 11.1-8.1 13.8-9.4 2.8-1.2 9.7-3.3 15.5-4.6 6.3-1.4 15.3-2.6 22.5-3l12-.5 22 6c12.1 3.3 24.9 6.5 28.5 7 3.6 .6 9.7 1.3 13.5 1.7 3.9 .4 7.9 1.1 9 1.5 1.1 .4 19.6 13.9 41 30 24.8 18.6 39.1 28.8 39.3 27.9 .2-.8 0-1.7-.5-2-.4-.3-12.5-9.3-26.8-19.9-14.3-10.6-30.9-23.2-37-27.9-6-4.7-12.1-9.1-13.5-9.8-1.4-.7-8.3-1.9-15.5-2.7-9.6-1-18.9-3.1-36-7.8l-23-6.3-10 .1c-6.4 .1-14.7 1.1-23 2.8-8.7 1.8-15.3 3.8-20 6.1-3.8 1.9-10.6 6.6-15 10.4-4.4 3.8-10.5 10-13.5 13.7-3 3.7-6.1 6.9-6.7 7.1-.7 .2-2.4-.9-3.8-2.4-1.4-1.6-3-4.8-3.6-7.3-.7-3.2-.7-7.2 .1-14 .7-6.5 2-11.4 3.9-15.5 1.5-3.3 4.6-8.2 6.7-11 2.2-2.7 5.7-6.3 7.9-8 2.2-1.6 12.5-6.5 23-10.8 10.4-4.2 20.6-8.8 22.5-10.1 1.9-1.2 6.4-4.9 9.9-8.2 3.5-3.2 8.5-8.8 11.2-12.4 2.7-3.6 7.8-12.3 11.4-19.5 3.5-7.1 7.1-15.9 8-19.5 .8-3.6 1.5-7.7 1.5-9.2 0-1.6-.4-2.8-1-2.8-.5 0-1.2 1-1.4 2.3-.3 1.2-.8 4.5-1.1 7.2-.4 2.8-2.6 9.2-5.1 14.3-2.4 5-4.7 9.2-5.1 9.2-.5 0-1.8-1-2.9-2.2-1.2-1.3-3.9-5.1-6-8.5-3.4-5.5-4.9-6.8-11.4-10.4-4.1-2.3-9-5.4-10.7-7-1.8-1.6-3.6-2.9-4-2.9-.5 0-6.2-.5-12.8-.9-7.2-.6-12.9-.6-14.2 0-1.3 .5-2.3 .6-2.3 .2 0-.5 .6-2.5 1.5-4.5 .8-2.1 2.1-3.8 2.8-3.8 .6 0 5-1.8 9.7-4.1 7-3.4 9.2-4 12.5-3.6 2.2 .3 6 1.7 8.5 3.1 2.5 1.4 6.5 3.2 9 4.1 3.6 1.1 4.9 2.2 6.5 5.5 1.1 2.2 2.5 4.1 3 4.1 .6-.1 .7-1.2 .3-3.1-.5-1.6-.7-3-.5-3 .1 0 2.2 .7 4.7 1.5 2.5 .8 4.6 1.5 4.8 1.5 .1 0 .2-.7 .2-1.5 0-1-1.6-1.8-4.2-2.4-2.4-.6-8.8-2.8-14.3-5.1-5.5-2.2-10.9-4.9-12-5.9-1.1-1-3-2.4-4.2-3-2-.9-3.6-.4-11.5 3.7-5.1 2.7-10.8 5.4-12.5 6-2.7 1-3.9 2.4-6.3 8-1.7 3.7-4.8 8.4-6.8 10.6-2 2.1-5.7 5.2-8.2 6.7-2.8 1.8-5.8 2.9-8 2.9-1.9 0-4.2-.5-5-1-.8-.5-1.6-2.7-1.7-5-.2-2.6 1.3-8.7 4.2-17.7 2.5-7.6 5.2-14.9 6-16.3 .8-1.4 10.8-8.6 22.7-16.4l21.3-13.8 5.5 .5c3 .3 12.3 3 20.5 6 8.3 3 21.9 7.2 30.3 9.3 13.2 3.4 15.4 3.7 16.2 2.4 .7-1.3 1.5-1.3 5.7-.2 2.6 .8 6.8 2.4 9.3 3.8 2.9 1.5 6.3 4.8 9.6 9.1 2.8 3.8 7.9 11.1 11.4 16.3 3.5 5.2 13.4 18.3 22 29 10.6 13.2 19.7 23.2 28.1 31.1 6.8 6.4 18.3 16.4 25.4 22.3 7.5 6.1 13.2 10.1 13.4 9.3 .2-.6-.8-2.1-2.1-3.2-1.4-1.1-8.3-6.8-15.4-12.7-7.1-5.8-17.7-15.3-23.5-21-5.8-5.6-16.9-18.2-24.5-27.8-7.7-9.6-18.9-24.7-24.9-33.4-6.1-8.8-12.6-17.2-14.5-18.8-2-1.7-7-3.9-12-5.4-4.7-1.4-12.1-3.7-16.5-5.1-4.4-1.5-16.3-6.1-26.5-10.3-10.2-4.2-22.8-9.1-28-10.9-6.2-2.2-10.7-3.2-13-2.9-1.9 .2-6 2.2-9 4.3-3 2.1-9.5 7.1-14.5 11.1-4.9 3.9-12.9 10.6-17.7 14.8-6.8 5.8-8.9 8.3-9.4 10.9l-.6 3.2-1.6-3.4c-1-1.9-9.5-11-18.9-20.3-9.5-9.2-18.5-17.4-20-18.2-1.6-.7-4.1-1.6-5.8-2ZM300.8 138c0.6 0 4.9 1.2 9.5 2.6 4.5 1.5 15.2 5.6 23.7 9.2 8.5 3.5 20.7 8.4 27 10.8 6.3 2.4 11.1 4.3 10.5 4.4-.5 0-7.1-1.6-14.5-3.5-7.4-2-20.5-6.1-29-9.1-8.5-3-17.3-5.6-19.5-5.6-2.2 0-5.1 .3-6.5 .7-1.4 .5-11.5 6.8-22.5 14-11 7.2-20.7 14-21.5 15-.8 1-3.2 6.8-5.2 12.9-3.1 9.4-3.6 10.4-3.2 6.1 .3-2.7 1-8.1 1.5-12 .6-3.8 1.3-7.5 1.7-8.1 .4-.6 3.6-3.7 7.2-6.9 3.6-3.2 12.4-10.5 19.5-16.2 7.2-5.8 14.6-11.3 16.5-12.3 1.9-1.1 4.1-1.9 4.8-2ZM200.8 139c2.5 0 5 .8 7.7 2.8 2.2 1.6 11.1 10 19.9 18.8 8.7 8.7 16.5 17.4 17.2 19.2 1 2.3 1.2 5.2 .7 10.5l-.7 7.2-2.2-9c-1.2-4.9-3.1-10.9-4.3-13.2-1.8-3.6-4-5.5-13.8-11.6-6.5-4.1-16.1-9.9-21.3-13-5.8-3.5-10.7-5.7-12.5-5.7-1.6 0-4.6 .8-6.5 1.8-1.9 1-11.7 6.2-21.7 11.5-10.1 5.3-18.5 9.5-18.8 9.2-.3-.3 3.7-2.8 8.8-5.7 5-2.8 17-9.1 26.5-14 12.4-6.4 18.2-8.8 21-8.8ZM187 189c0.3 0-.6 .9-2 2-1.4 1.1-2.9 2-3.5 2-.5 0 .4-.9 2-2 1.7-1.1 3.2-2 3.5-2ZM204.3 200.1c0.9 0 4.2 2 7.3 4.7 3.1 2.6 9.2 8.3 13.7 12.8 6.5 6.3 9 8.2 12.2 8.8 3.5 .7 4.2 .5 5.8-1.6 1-1.3 1.8-3.1 1.7-4 0-1 .5-1.8 1-1.8 .6 0 1 .7 1 1.5 0 .8 1.5 2.1 3.3 2.9 1.9 .8 4.4 1.2 6.1 .8 1.6-.4 3.4-1.4 4-2.3 .6-.9 2.5-2.3 4.1-3.2 1.7-.8 5.8-4.2 9.3-7.6 3.4-3.4 7.8-6.8 9.7-7.6 1.9-.8 4-1.3 4.5-1 .6 .3 5.8 .9 11.8 1.3l10.7 .8 3 2.8c1.7 1.6 6 4.3 9.8 6.2 5.6 2.9 7.3 4.3 10.3 9.2 2 3.1 5.2 7.4 7.3 9.5l3.6 3.8-3 5.5c-1.6 3-5.5 8.3-8.5 11.8-3 3.5-8.2 8.7-11.5 11.6-3.3 2.9-8.5 6.4-11.5 7.7-3 1.4-11.1 4.8-18 7.5-6.9 2.8-14.5 6-17 7.3-2.5 1.2-7.2 5.2-10.5 8.7-3.3 3.6-7.1 8.7-8.4 11.4-1.3 2.7-2.6 5.1-2.8 5.4-.2 .3-2.3-1.6-4.8-4.2-2.5-2.7-7.1-6.5-10.3-8.5-3.1-2.1-10.4-5.9-16.2-8.4-5.8-2.6-15.7-6.8-22-9.5-9.7-4-12.2-5.5-16-9.7-2.5-2.7-7.1-8.3-10.3-12.5-3.1-4.3-7.5-11.2-9.7-15.4l-4-7.8 3.9-6.7c2.2-3.8 4.2-7.7 4.4-8.8 .3-1.1 4.7-5.5 9.6-9.7 5-4.3 9.1-8.2 9.1-8.8 0-.5 1.7-1 3.8-1.1 2 0 5.5-.4 7.7-.8 2.2-.5 4.8-.9 5.8-1ZM220 204.5c0.5 1.1 .9 2.7 .9 3.5l0.1 1.5-1-1.5c-.5-.8-.9-2.4-.9-3.5l0-2 .9 2ZM231.8 217c1.5 1.1 4.6 2.3 7 2.5 2.3 .3 4.2 .7 4.2 1 0 .3-.2 1.2-.5 2-.3 .8-1.5 1.5-2.7 1.5-1.3 0-3.4-.4-4.7-.8-1.3-.4-3.2-2-4.2-3.7-1-1.6-1.9-3.3-1.9-3.7 0-.5 1.2 .1 2.8 1.2ZM253.8 221l3.7 .4-3 .4c-1.6 .1-3.3-.1-3.7-.5-.4-.4 1-.6 3-.3Z" style="fill:hsl(0,100%,50%);"/>
</g>
<g id="s" style="mix-blend-mode:saturation;">
<path d="M202.5 136.6c-2.1-.4-5.1 .3-10 2.3-3.8 1.6-13.5 6.4-21.5 10.6-8 4.2-18.3 9.9-23 12.5-4.7 2.7-13.2 6.8-19 9.1-5.8 2.2-12.1 4.9-14 5.9-1.9 .9-5.5 3.9-7.9 6.6-2.4 2.7-10.9 13.7-18.9 24.4-8 10.7-17.6 23.6-21.3 28.5-3.7 5-13.9 16.7-22.7 26-8.8 9.4-19 19.5-22.7 22.5-3.8 3-10.1 8.3-14.2 11.8-4 3.4-7.3 6.9-7.3 7.7 0 .9 4.7-2.4 11.2-7.7 6.2-5.1 15.9-13.8 21.6-19.3 5.7-5.5 15.2-15.4 21.2-22 6-6.6 18.2-21.9 27.1-34 8.9-12.1 19.6-26.2 23.8-31.4 4.2-5.2 8.7-9.9 10.1-10.6 1.4-.7 8.2-3.6 15.3-6.4 7-2.8 13-4.9 13.5-4.7 .4 .3-.3 .7-1.5 1-1.3 .3-2.3 1.1-2.3 1.6 0 .6 .5 1 1 1 .6 0 6.1-2.5 12.3-5.6 6.1-3.1 16.4-8.5 22.7-11.9 6.3-3.5 12.6-6.7 14-7 2-.6 6.1 1.5 22 11 10.7 6.4 20.6 12.7 21.8 13.9 1.3 1.1 3 3.2 3.7 4.6 .7 1.4 3.1 10 5.4 19.3 2.3 9.2 4.1 17.4 4.1 18.2 0 .8-.7 1.7-1.5 2-.8 .3-3.5 .5-6 .5l-4.5 0-5.3-5.2c-2.9-2.9-7.5-9-10.2-13.6l-5-8.3-10-4.4c-9-3.9-10.2-4.2-12-3-1.1 .8-8 4.8-15.2 9-7.3 4.1-13.3 8-13.3 8.5 0 .6 .5 1 1 1 .6 0 4.2-1.8 8-4 3.9-2.2 7.2-3.9 7.5-3.7 .2 .1-1.6 1.7-4 3.5-3.7 2.6-4.8 4.2-6 8.5-1 3.4-1.2 5.6-.5 6.2 .6 .7 1.1 .5 1.4-.5 .2-.8 1.1-3.5 2-6 1-2.8 2.6-5.1 4.3-6.1 1.6-.9 6.6-4.5 11.3-7.9l8.5-6.2 7.5 3.6c4.1 2 8.2 4.6 9.1 5.8 .9 1.3 1.9 4.6 2.2 7.3l0.6 5-2.2-2c-1.2-1.1-3.5-3.2-5.2-4.8l-3-2.8-4 1c-2.2 .6-6.4 1.1-9.2 1.1l-5.3 0-6.7 6.3c-3.8 3.5-8.4 7.6-10.3 9.2-2 1.6-4.9 5.7-6.6 9.4-1.8 3.6-3.9 7.5-4.7 8.6l-1.4 2-2.2-5.7c-1.1-3.2-2.6-7.9-3.1-10.5-.6-2.7-.8-6.1-.4-7.8 .3-1.6 1.7-5 3-7.5 1.3-2.5 2.2-4.7 1.8-5-.3-.3-1.7 .7-3 2.3-1.3 1.5-2.8 4.4-3.4 6.5-.5 2-1 5.4-1 7.5 0 2 .9 6.5 2.1 10 1.1 3.4 4.2 10.7 6.9 16.2 2.6 5.5 7.5 13.8 10.9 18.5 3.3 4.7 8.6 11.3 11.8 14.7l5.8 6.2 19.5 8.2c10.7 4.5 22.4 9.8 26 11.7 3.6 2 9.3 6.4 12.8 9.9l6.2 6.3-.6 3.3c-.3 1.7-.8 6.1-1.1 9.7-.3 3.6-.3 8.5 0 11 .4 2.5 1.8 6.3 3.3 8.5l2.6 4-1.9 1.3c-1 .7-2.2 1.2-2.8 1.2-.5 0-2.3-.9-4-1.9-1.6-1.1-5.7-5-9-8.7-3.7-4.2-9.5-9-15-12.7-4.9-3.2-11.7-7.1-15-8.7-3.3-1.6-9.8-4-14.5-5.3-4.7-1.4-12-3.2-16.2-4.1-4.3-.9-9.9-1.6-12.5-1.6-2.7 0-6.6 .6-8.8 1.3-2.2 .8-10.7 4.4-19 8-10.4 4.6-19.4 7.7-29.2 10.2-7.9 1.9-17.3 4.6-21 6.1-3.8 1.4-8.8 3.7-11.3 5.2-2.5 1.4-9.7 7.1-16 12.5-6.3 5.5-22.4 19.7-35.7 31.6-13.5 12.1-24.2 22.4-24.2 23.4-.1 1 7.3-5 19.7-16 10.8-9.8 25.1-22.5 31.7-28.3 6.6-5.8 14.5-12.6 17.5-15.2 3-2.5 8.2-5.9 11.5-7.5 3.3-1.7 9.6-4.2 14-5.6 4.4-1.5 12.1-3.5 17-4.6 5.1-1.1 14.6-4.3 22-7.5 7.2-3.2 16.6-7.1 21-8.9l8-3.1 8 1.2c4.4 .6 12.5 2.3 18 3.7 5.5 1.4 13.4 4.2 17.5 6.1 4.1 2 10.2 5.2 13.5 7.2 3.3 2 11.1 8.5 17.3 14.4 9.5 9.1 11.7 10.8 14.5 10.8 2 .1 4-.7 5.2-2 1.1-1.1 3-2.1 4.3-2 1.6 0 3.8-2.1 8.1-7.7 3.4-4.4 9.8-10.9 14.8-15 4.8-3.9 11.1-8.1 13.8-9.4 2.8-1.2 9.7-3.3 15.5-4.6 6.3-1.4 15.3-2.6 22.5-3l12-.5 22 6c12.1 3.3 24.9 6.5 28.5 7 3.6 .6 9.7 1.3 13.5 1.7 3.9 .4 7.9 1.1 9 1.5 1.1 .4 19.6 13.9 41 30 24.8 18.6 39.1 28.8 39.3 27.9 .2-.8 0-1.7-.5-2-.4-.3-12.5-9.3-26.8-19.9-14.3-10.6-30.9-23.2-37-27.9-6-4.7-12.1-9.1-13.5-9.8-1.4-.7-8.3-1.9-15.5-2.7-9.6-1-18.9-3.1-36-7.8l-23-6.3-10 .1c-6.4 .1-14.7 1.1-23 2.8-8.7 1.8-15.3 3.8-20 6.1-3.8 1.9-10.6 6.6-15 10.4-4.4 3.8-10.5 10-13.5 13.7-3 3.7-6.1 6.9-6.7 7.1-.7 .2-2.4-.9-3.8-2.4-1.4-1.6-3-4.8-3.6-7.3-.7-3.2-.7-7.2 .1-14 .7-6.5 2-11.4 3.9-15.5 1.5-3.3 4.6-8.2 6.7-11 2.2-2.7 5.7-6.3 7.9-8 2.2-1.6 12.5-6.5 23-10.8 10.4-4.2 20.6-8.8 22.5-10.1 1.9-1.2 6.4-4.9 9.9-8.2 3.5-3.2 8.5-8.8 11.2-12.4 2.7-3.6 7.8-12.3 11.4-19.5 3.5-7.1 7.1-15.9 8-19.5 .8-3.6 1.5-7.7 1.5-9.2 0-1.6-.4-2.8-1-2.8-.5 0-1.2 1-1.4 2.3-.3 1.2-.8 4.5-1.1 7.2-.4 2.8-2.6 9.2-5.1 14.3-2.4 5-4.7 9.2-5.1 9.2-.5 0-1.8-1-2.9-2.2-1.2-1.3-3.9-5.1-6-8.5-3.4-5.5-4.9-6.8-11.4-10.4-4.1-2.3-9-5.4-10.7-7-1.8-1.6-3.6-2.9-4-2.9-.5 0-6.2-.5-12.8-.9-7.2-.6-12.9-.6-14.2 0-1.3 .5-2.3 .6-2.3 .2 0-.5 .6-2.5 1.5-4.5 .8-2.1 2.1-3.8 2.8-3.8 .6 0 5-1.8 9.7-4.1 7-3.4 9.2-4 12.5-3.6 2.2 .3 6 1.7 8.5 3.1 2.5 1.4 6.5 3.2 9 4.1 3.6 1.1 4.9 2.2 6.5 5.5 1.1 2.2 2.5 4.1 3 4.1 .6-.1 .7-1.2 .3-3.1-.5-1.6-.7-3-.5-3 .1 0 2.2 .7 4.7 1.5 2.5 .8 4.6 1.5 4.8 1.5 .1 0 .2-.7 .2-1.5 0-1-1.6-1.8-4.2-2.4-2.4-.6-8.8-2.8-14.3-5.1-5.5-2.2-10.9-4.9-12-5.9-1.1-1-3-2.4-4.2-3-2-.9-3.6-.4-11.5 3.7-5.1 2.7-10.8 5.4-12.5 6-2.7 1-3.9 2.4-6.3 8-1.7 3.7-4.8 8.4-6.8 10.6-2 2.1-5.7 5.2-8.2 6.7-2.8 1.8-5.8 2.9-8 2.9-1.9 0-4.2-.5-5-1-.8-.5-1.6-2.7-1.7-5-.2-2.6 1.3-8.7 4.2-17.7 2.5-7.6 5.2-14.9 6-16.3 .8-1.4 10.8-8.6 22.7-16.4l21.3-13.8 5.5 .5c3 .3 12.3 3 20.5 6 8.3 3 21.9 7.2 30.3 9.3 13.2 3.4 15.4 3.7 16.2 2.4 .7-1.3 1.5-1.3 5.7-.2 2.6 .8 6.8 2.4 9.3 3.8 2.9 1.5 6.3 4.8 9.6 9.1 2.8 3.8 7.9 11.1 11.4 16.3 3.5 5.2 13.4 18.3 22 29 10.6 13.2 19.7 23.2 28.1 31.1 6.8 6.4 18.3 16.4 25.4 22.3 7.5 6.1 13.2 10.1 13.4 9.3 .2-.6-.8-2.1-2.1-3.2-1.4-1.1-8.3-6.8-15.4-12.7-7.1-5.8-17.7-15.3-23.5-21-5.8-5.6-16.9-18.2-24.5-27.8-7.7-9.6-18.9-24.7-24.9-33.4-6.1-8.8-12.6-17.2-14.5-18.8-2-1.7-7-3.9-12-5.4-4.7-1.4-12.1-3.7-16.5-5.1-4.4-1.5-16.3-6.1-26.5-10.3-10.2-4.2-22.8-9.1-28-10.9-6.2-2.2-10.7-3.2-13-2.9-1.9 .2-6 2.2-9 4.3-3 2.1-9.5 7.1-14.5 11.1-4.9 3.9-12.9 10.6-17.7 14.8-6.8 5.8-8.9 8.3-9.4 10.9l-.6 3.2-1.6-3.4c-1-1.9-9.5-11-18.9-20.3-9.5-9.2-18.5-17.4-20-18.2-1.6-.7-4.1-1.6-5.8-2ZM300.8 138c0.6 0 4.9 1.2 9.5 2.6 4.5 1.5 15.2 5.6 23.7 9.2 8.5 3.5 20.7 8.4 27 10.8 6.3 2.4 11.1 4.3 10.5 4.4-.5 0-7.1-1.6-14.5-3.5-7.4-2-20.5-6.1-29-9.1-8.5-3-17.3-5.6-19.5-5.6-2.2 0-5.1 .3-6.5 .7-1.4 .5-11.5 6.8-22.5 14-11 7.2-20.7 14-21.5 15-.8 1-3.2 6.8-5.2 12.9-3.1 9.4-3.6 10.4-3.2 6.1 .3-2.7 1-8.1 1.5-12 .6-3.8 1.3-7.5 1.7-8.1 .4-.6 3.6-3.7 7.2-6.9 3.6-3.2 12.4-10.5 19.5-16.2 7.2-5.8 14.6-11.3 16.5-12.3 1.9-1.1 4.1-1.9 4.8-2ZM200.8 139c2.5 0 5 .8 7.7 2.8 2.2 1.6 11.1 10 19.9 18.8 8.7 8.7 16.5 17.4 17.2 19.2 1 2.3 1.2 5.2 .7 10.5l-.7 7.2-2.2-9c-1.2-4.9-3.1-10.9-4.3-13.2-1.8-3.6-4-5.5-13.8-11.6-6.5-4.1-16.1-9.9-21.3-13-5.8-3.5-10.7-5.7-12.5-5.7-1.6 0-4.6 .8-6.5 1.8-1.9 1-11.7 6.2-21.7 11.5-10.1 5.3-18.5 9.5-18.8 9.2-.3-.3 3.7-2.8 8.8-5.7 5-2.8 17-9.1 26.5-14 12.4-6.4 18.2-8.8 21-8.8ZM187 189c0.3 0-.6 .9-2 2-1.4 1.1-2.9 2-3.5 2-.5 0 .4-.9 2-2 1.7-1.1 3.2-2 3.5-2ZM204.3 200.1c0.9 0 4.2 2 7.3 4.7 3.1 2.6 9.2 8.3 13.7 12.8 6.5 6.3 9 8.2 12.2 8.8 3.5 .7 4.2 .5 5.8-1.6 1-1.3 1.8-3.1 1.7-4 0-1 .5-1.8 1-1.8 .6 0 1 .7 1 1.5 0 .8 1.5 2.1 3.3 2.9 1.9 .8 4.4 1.2 6.1 .8 1.6-.4 3.4-1.4 4-2.3 .6-.9 2.5-2.3 4.1-3.2 1.7-.8 5.8-4.2 9.3-7.6 3.4-3.4 7.8-6.8 9.7-7.6 1.9-.8 4-1.3 4.5-1 .6 .3 5.8 .9 11.8 1.3l10.7 .8 3 2.8c1.7 1.6 6 4.3 9.8 6.2 5.6 2.9 7.3 4.3 10.3 9.2 2 3.1 5.2 7.4 7.3 9.5l3.6 3.8-3 5.5c-1.6 3-5.5 8.3-8.5 11.8-3 3.5-8.2 8.7-11.5 11.6-3.3 2.9-8.5 6.4-11.5 7.7-3 1.4-11.1 4.8-18 7.5-6.9 2.8-14.5 6-17 7.3-2.5 1.2-7.2 5.2-10.5 8.7-3.3 3.6-7.1 8.7-8.4 11.4-1.3 2.7-2.6 5.1-2.8 5.4-.2 .3-2.3-1.6-4.8-4.2-2.5-2.7-7.1-6.5-10.3-8.5-3.1-2.1-10.4-5.9-16.2-8.4-5.8-2.6-15.7-6.8-22-9.5-9.7-4-12.2-5.5-16-9.7-2.5-2.7-7.1-8.3-10.3-12.5-3.1-4.3-7.5-11.2-9.7-15.4l-4-7.8 3.9-6.7c2.2-3.8 4.2-7.7 4.4-8.8 .3-1.1 4.7-5.5 9.6-9.7 5-4.3 9.1-8.2 9.1-8.8 0-.5 1.7-1 3.8-1.1 2 0 5.5-.4 7.7-.8 2.2-.5 4.8-.9 5.8-1ZM220 204.5c0.5 1.1 .9 2.7 .9 3.5l0.1 1.5-1-1.5c-.5-.8-.9-2.4-.9-3.5l0-2 .9 2ZM231.8 217c1.5 1.1 4.6 2.3 7 2.5 2.3 .3 4.2 .7 4.2 1 0 .3-.2 1.2-.5 2-.3 .8-1.5 1.5-2.7 1.5-1.3 0-3.4-.4-4.7-.8-1.3-.4-3.2-2-4.2-3.7-1-1.6-1.9-3.3-1.9-3.7 0-.5 1.2 .1 2.8 1.2ZM253.8 221l3.7 .4-3 .4c-1.6 .1-3.3-.1-3.7-.5-.4-.4 1-.6 3-.3Z" style="fill:rgb(100%,100%,100%);"/>
</g>
</g>
</defs>
<use xlink:href="#hsl"/>
</svg>