<svg version="1.1" id="Layer_1" xmlns="http://www.w3.org/2000/svg" xmlns:xlink="http://www.w3.org/1999/xlink" x="0px" y="0px"
	 width="100%" viewBox="0 0 1998 398" enable-background="new 0 0 1998 398" xml:space="preserve">
<path fill="#FFFFFF" opacity="1.000000" stroke="none" 
	d="
M1890.000000,399.000000 
	C1260.000000,399.000000 630.500000,399.000000 1.000000,399.000000 
	C1.000000,266.333344 1.000000,133.666672 1.000000,1.000000 
	C667.000000,1.000000 1333.000000,1.000000 1999.000000,1.000000 
	C1999.000000,133.666672 1999.000000,266.333344 1999.000000,399.000000 
	C1962.833374,399.000000 1926.666626,399.000000 1890.000000,399.000000 
M499.975922,212.500000 
	C499.975922,186.764496 499.975922,161.028992 499.975922,135.347137 
	C489.660461,135.347137 480.256775,135.347137 470.515198,135.347137 
	C470.515198,159.639557 470.515198,183.577393 470.515198,207.716431 
	C442.953247,207.716431 415.739594,207.716431 387.944672,207.716431 
	C387.944672,183.389648 387.944672,159.354248 387.944672,135.379669 
	C377.960175,135.379669 368.562439,135.379669 359.167114,135.379669 
	C359.167114,191.645798 359.167114,247.519348 359.167114,303.471527 
	C368.950562,303.471527 378.345337,303.471527 388.287598,303.471527 
	C388.287598,280.575714 388.287598,258.005737 388.287598,235.367599 
	C415.916412,235.367599 442.991333,235.367599 470.550690,235.367599 
	C470.550690,258.203186 470.550690,280.790894 470.550690,303.541870 
	C480.441071,303.541870 489.844604,303.541870 499.975922,303.541870 
	C499.975922,273.357422 499.975922,243.428711 499.975922,212.500000 
M1213.647583,267.500214 
	C1213.647583,256.761719 1213.647583,246.023239 1213.647583,235.470490 
	C1241.492188,235.470490 1268.548584,235.470490 1296.127686,235.470490 
	C1296.127686,258.374634 1296.127686,280.928223 1296.127686,303.430145 
	C1306.056885,303.430145 1315.454224,303.430145 1324.882446,303.430145 
	C1324.882446,247.175156 1324.882446,191.293137 1324.882446,135.339874 
	C1315.084839,135.339874 1305.687256,135.339874 1295.741089,135.339874 
	C1295.741089,159.739044 1295.741089,183.793427 1295.741089,207.746765 
	C1268.077637,207.746765 1240.969727,207.746765 1213.350952,207.746765 
	C1213.350952,183.417770 1213.350952,159.350739 1213.350952,135.333618 
	C1203.415649,135.333618 1193.997437,135.333618 1184.438477,135.333618 
	C1184.438477,191.562668 1184.438477,247.445221 1184.438477,303.566345 
	C1194.184937,303.566345 1203.587891,303.566345 1213.647583,303.566345 
	C1213.647583,291.741669 1213.647583,280.120941 1213.647583,267.500214 
M1051.786499,238.157181 
	C1051.786499,217.380920 1051.786499,196.604660 1051.786499,175.558624 
	C1041.852783,175.558624 1032.963013,175.558624 1023.814148,175.558624 
	C1023.688904,177.113892 1023.494263,178.409378 1023.493713,179.704971 
	C1023.484497,200.532318 1023.350769,221.361481 1023.606567,242.185806 
	C1023.677612,247.968246 1024.472534,253.834763 1025.716187,259.490997 
	C1028.528564,272.281219 1034.896606,283.269714 1047.318481,288.326294 
	C1069.173462,297.222809 1090.539917,296.259003 1110.140503,281.578186 
	C1111.267212,280.734344 1112.352539,279.835327 1114.360718,278.247559 
	C1114.083496,284.416168 1114.105957,289.521454 1113.572388,294.567932 
	C1112.599365,303.770721 1110.436401,312.669067 1103.834351,319.656830 
	C1093.867432,330.205963 1074.411865,332.409821 1060.290771,324.998627 
	C1051.864136,320.576050 1047.170654,313.113342 1043.233398,304.451569 
	C1034.807251,308.052734 1026.637939,311.544189 1017.331970,315.521362 
	C1021.745728,322.233765 1025.167603,328.761017 1029.807251,334.260956 
	C1048.294434,356.175995 1083.879883,359.511993 1106.623535,349.238770 
	C1130.935181,338.257294 1141.074341,317.593872 1141.576904,292.269287 
	C1142.327148,254.461349 1141.834717,216.628693 1141.849731,178.806534 
	C1141.850098,177.700592 1141.610474,176.594543 1141.485107,175.508926 
	C1132.292969,175.508926 1123.417969,175.508926 1114.266724,175.508926 
	C1114.266724,193.370438 1114.483521,210.851486 1114.148926,228.321960 
	C1114.032227,234.411667 1113.028198,240.591721 1111.571655,246.519760 
	C1109.955811,253.097137 1106.407837,258.805695 1100.406860,262.482727 
	C1079.297485,275.417236 1055.836304,264.739136 1052.132812,240.555466 
	C1052.057129,240.061371 1051.981689,239.567245 1051.786499,238.157181 
M864.092957,283.499969 
	C864.092957,305.608337 864.092957,327.716705 864.092957,350.176697 
	C873.660950,350.176697 882.706604,350.176697 892.138794,350.176697 
	C892.138794,328.787933 892.138794,307.732178 892.138794,285.846588 
	C893.445251,287.041107 894.154419,287.641418 894.809753,288.295654 
	C922.061096,315.502716 962.108093,309.739044 983.621460,279.900757 
	C994.100342,265.366882 996.494263,248.932098 995.295959,231.520126 
	C993.929382,211.663376 985.469666,195.847122 969.193115,184.366989 
	C948.552124,169.808533 913.787109,165.797546 893.383118,194.450058 
	C893.198486,194.709396 892.641357,194.703491 891.758179,194.975250 
	C891.758179,188.216904 891.758179,181.815765 891.758179,175.422028 
	C882.411072,175.422028 873.501648,175.422028 864.092957,175.422028 
	C864.092957,211.311554 864.092957,246.905746 864.092957,283.499969 
M767.992798,305.530792 
	C788.622131,307.219147 805.484863,299.694244 818.867371,284.256592 
	C831.598694,269.570160 835.168335,252.061676 834.092651,233.121796 
	C832.796082,210.294205 822.810059,192.693619 802.910461,181.308640 
	C781.743530,169.198593 750.919495,168.064133 732.154846,194.369766 
	C731.968689,194.630707 731.428345,194.638962 730.500488,194.951401 
	C730.500488,188.158646 730.500488,181.746521 730.500488,175.469650 
	C721.088257,175.469650 712.165833,175.469650 703.102539,175.469650 
	C703.002319,176.944321 702.856934,178.086533 702.856689,179.228790 
	C702.845703,234.705948 702.847107,290.183105 702.848389,345.660278 
	C702.848389,346.493042 702.606262,347.450684 702.934998,348.127716 
	C703.369324,349.022034 704.244751,350.352692 704.950867,350.365387 
	C713.513000,350.519409 722.078857,350.465240 731.155762,350.465240 
	C731.155762,328.589233 731.155762,307.591919 731.155762,285.956665 
	C741.571045,296.515991 752.918335,303.646027 767.992798,305.530792 
M1440.683350,301.203461 
	C1447.968994,296.350220 1455.254761,291.496979 1462.785278,286.480591 
	C1462.785278,291.867828 1462.785278,297.732635 1462.785278,303.589355 
	C1472.214722,303.589355 1480.999146,303.589355 1490.010986,303.589355 
	C1490.010986,260.715790 1490.010986,218.058456 1490.010986,175.495041 
	C1480.679565,175.495041 1471.784790,175.495041 1462.207520,175.495041 
	C1462.207520,182.124786 1462.207520,188.403839 1462.207520,195.636749 
	C1455.058472,186.400894 1447.530518,179.515656 1437.436523,176.041016 
	C1406.148560,165.270767 1369.219849,186.280762 1361.105835,219.449432 
	C1358.258423,231.089233 1358.216309,242.866425 1360.170776,254.602509 
	C1366.477783,292.474609 1405.076416,315.119354 1440.683350,301.203461 
M1714.807129,207.306610 
	C1707.795410,213.535370 1700.783691,219.764114 1694.267578,225.552551 
	C1694.267578,193.059006 1694.267578,159.045334 1694.267578,125.034973 
	C1684.763184,125.034973 1675.846313,125.034973 1666.834229,125.034973 
	C1666.834229,184.713898 1666.834229,244.086349 1666.834229,303.507202 
	C1676.121704,303.507202 1685.029907,303.507202 1694.438843,303.507202 
	C1694.438843,292.588135 1694.405640,281.960480 1694.474487,271.333496 
	C1694.484863,269.733154 1694.403442,267.591125 1695.329590,266.625824 
	C1701.158813,260.550232 1707.260986,254.736465 1713.496826,248.616592 
	C1725.393555,266.140045 1737.046875,283.343475 1748.772217,300.497650 
	C1749.646484,301.776703 1751.014160,303.623352 1752.188721,303.650787 
	C1762.728149,303.896973 1773.275757,303.794525 1784.874023,303.794525 
	C1767.064209,277.416138 1749.898926,251.992218 1732.634277,226.421097 
	C1748.796997,209.495178 1764.699585,192.841766 1781.619629,175.122818 
	C1769.986450,175.122818 1759.897339,174.924576 1749.826416,175.264938 
	C1747.369141,175.347961 1744.375122,176.602631 1742.645752,178.334763 
	C1733.351929,187.643494 1724.379395,197.273102 1714.807129,207.306610 
M535.606506,257.829865 
	C540.917114,280.175507 554.447327,295.733246 576.058411,302.802673 
	C599.646545,310.518890 620.089600,303.807587 637.297729,284.392639 
	C637.297729,291.496155 637.297729,297.531616 637.297729,303.475739 
	C646.785339,303.475739 655.703613,303.475739 664.694702,303.475739 
	C664.694702,260.605469 664.694702,218.062729 664.694702,175.375656 
	C655.413269,175.375656 646.495178,175.375656 637.080200,175.375656 
	C637.080200,181.979843 637.080200,188.354065 637.080200,194.614426 
	C636.439758,194.736664 636.213684,194.834167 636.168701,194.780319 
	C635.424255,193.889359 634.717041,192.967285 633.973511,192.075546 
	C628.014038,184.927933 621.000061,179.166611 612.121216,176.048431 
	C585.777893,166.796783 552.781128,181.118408 540.204468,207.320755 
	C532.552551,223.263016 532.301453,240.008255 535.606506,257.829865 
M1895.810547,279.099701 
	C1895.936157,278.615967 1896.054077,278.130127 1896.188599,277.648865 
	C1901.977661,256.922638 1895.528564,242.087845 1876.111816,232.949402 
	C1869.095947,229.647476 1861.547607,227.451477 1854.182617,224.924530 
	C1847.769531,222.724152 1841.016357,221.334778 1834.878174,218.559387 
	C1827.428345,215.190948 1827.044189,205.824524 1833.820801,201.154892 
	C1835.960449,199.680481 1838.601074,198.201706 1841.076660,198.084747 
	C1848.152710,197.750412 1855.462402,197.107956 1862.304321,198.472214 
	C1869.935791,199.993927 1877.153809,203.588760 1884.846802,206.388596 
	C1887.990234,200.110001 1891.315552,193.468063 1894.810303,186.487579 
	C1872.004150,172.172211 1848.423950,168.463852 1823.826904,179.454544 
	C1809.756592,185.741669 1802.140747,197.466492 1802.231567,213.112152 
	C1802.316406,227.729965 1811.438477,236.589066 1823.687134,242.323563 
	C1831.321655,245.897873 1839.661743,247.932526 1847.490479,251.134171 
	C1853.895508,253.753464 1860.385986,256.502930 1866.150024,260.253021 
	C1871.701416,263.864716 1872.283447,270.423859 1867.401855,274.852448 
	C1864.067505,277.877106 1859.268799,280.419739 1854.864868,280.928467 
	C1839.374390,282.717926 1825.875244,276.752075 1813.303833,268.281799 
	C1811.557983,267.105499 1809.764404,266.000214 1807.706299,264.678009 
	C1803.134888,272.067627 1798.804810,279.067108 1794.272949,286.392914 
	C1815.101318,301.168701 1837.311401,308.618103 1862.316895,304.614349 
	C1877.415039,302.196930 1889.296387,294.591187 1895.810547,279.099701 
M1532.489258,200.013000 
	C1511.197754,230.367584 1517.139648,271.750336 1545.529419,292.935699 
	C1573.850342,314.069672 1616.576538,308.233551 1639.633423,281.445496 
	C1634.303223,275.651459 1628.954834,269.837677 1623.645386,264.066193 
	C1597.230957,284.150055 1576.849121,285.287964 1559.700195,267.940308 
	C1545.802246,253.881302 1543.650024,230.574799 1555.084106,215.777130 
	C1561.520996,207.446655 1569.998413,202.054169 1580.404785,200.093658 
	C1596.640625,197.034943 1610.049438,203.234665 1622.200684,213.921219 
	C1627.861694,206.982803 1633.195190,200.445892 1638.496948,193.947952 
	C1613.492676,165.681625 1559.791138,165.242264 1532.489258,200.013000 
M167.715210,206.213150 
	C163.202789,211.311310 159.128326,216.897980 154.092636,221.412445 
	C141.023911,233.128510 123.280212,234.378052 109.241959,223.981277 
	C102.811165,219.218613 97.680557,212.610809 92.309860,206.530991 
	C86.695618,200.175507 81.501305,193.449066 76.123428,186.884781 
	C75.000778,197.447464 74.985718,207.390900 75.029869,217.334091 
	C75.033333,218.114883 75.244606,219.050827 75.704132,219.650391 
	C84.258972,230.812134 93.314117,241.552429 106.723824,247.093933 
	C132.004044,257.540863 157.447372,251.126465 175.534683,229.916397 
	C183.624588,220.429810 191.106949,210.403595 199.503387,201.204971 
	C212.402130,187.073914 232.463806,184.303528 247.233215,195.498581 
	C255.027756,201.406754 260.979858,209.790695 267.570557,217.228104 
	C273.093872,223.460938 278.336670,229.942352 283.703705,236.313690 
	C284.135895,236.057724 284.568085,235.801758 285.000275,235.545792 
	C285.000275,225.941513 285.025848,216.337051 284.959045,206.733246 
	C284.952667,205.816574 284.611328,204.688248 284.017303,204.022263 
	C276.957977,196.107407 270.582672,187.360825 262.555115,180.574677 
	C242.263672,163.421219 212.176865,163.126144 191.787521,180.109634 
	C182.952408,187.468918 176.006134,197.095795 167.715210,206.213150 
M271.299561,278.198181 
	C260.927185,267.632843 248.774673,262.496490 233.853958,266.109741 
	C224.873779,268.284363 218.431030,274.328430 212.224167,280.674347 
	C207.666397,285.334198 202.305496,287.621185 196.029770,284.887939 
	C193.235779,283.671082 190.685242,281.522186 188.511703,279.316010 
	C176.788345,267.416565 163.182800,260.804871 146.763275,267.421295 
	C139.806793,270.224487 133.870407,275.974854 128.032913,281.034698 
	C120.638878,287.443726 112.993317,287.668488 105.944160,280.868713 
	C102.952209,277.982605 99.993965,275.015472 96.710747,272.487274 
	C90.441116,267.659485 83.399429,264.881409 75.187042,265.181244 
	C75.187042,272.358795 75.187042,278.982819 75.187042,283.827240 
	C80.214157,287.496887 84.708763,289.987488 88.208534,293.476105 
	C100.197968,305.427338 114.005951,311.097412 130.200333,304.211182 
	C136.970413,301.332367 142.642151,295.570465 148.361511,290.599640 
	C154.931580,284.889435 162.412201,284.421570 168.942154,290.173615 
	C170.814407,291.822815 172.537506,293.643250 174.305496,295.408691 
	C189.652084,310.732971 211.473282,310.673737 225.772446,296.933533 
	C228.051941,294.743164 230.375000,292.598206 232.674210,290.428314 
	C238.861115,284.589386 246.959076,284.556915 253.244125,290.347717 
	C256.547363,293.391144 259.687927,296.638794 263.191193,299.431366 
	C269.422028,304.398071 276.539246,307.011780 284.826141,306.851410 
	C284.826141,299.753082 284.826141,293.133545 284.826141,288.127075 
	C279.894104,284.557373 275.847321,281.628387 271.299561,278.198181 
M152.380066,191.946289 
	C153.216782,190.774109 154.053513,189.601929 154.727249,188.658066 
	C152.205124,185.759277 149.806503,183.223663 147.656143,180.492599 
	C138.433365,168.779205 137.655518,150.765305 145.705566,137.323944 
	C153.791626,123.822449 169.968613,116.086281 184.659470,118.526016 
	C199.944855,121.064484 210.190140,129.683716 216.168777,143.830017 
	C216.762421,145.234650 218.666580,146.932190 220.047363,147.011261 
	C226.113190,147.358582 232.210205,147.161057 238.287552,147.161057 
	C236.095230,125.983276 216.989014,101.662048 186.195236,97.269562 
	C161.483597,93.744644 133.139572,110.264519 123.549583,134.067535 
	C112.521912,161.439011 122.864899,190.343475 142.176834,204.300720 
	C145.400269,200.381882 148.653641,196.426666 152.380066,191.946289 
z"/>
<path fill="#020202" opacity="1.000000" stroke="none" 
	d="
M499.975922,213.000000 
	C499.975922,243.428711 499.975922,273.357422 499.975922,303.541870 
	C489.844604,303.541870 480.441071,303.541870 470.550690,303.541870 
	C470.550690,280.790894 470.550690,258.203186 470.550690,235.367599 
	C442.991333,235.367599 415.916412,235.367599 388.287598,235.367599 
	C388.287598,258.005737 388.287598,280.575714 388.287598,303.471527 
	C378.345337,303.471527 368.950562,303.471527 359.167114,303.471527 
	C359.167114,247.519348 359.167114,191.645798 359.167114,135.379669 
	C368.562439,135.379669 377.960175,135.379669 387.944672,135.379669 
	C387.944672,159.354248 387.944672,183.389648 387.944672,207.716431 
	C415.739594,207.716431 442.953247,207.716431 470.515198,207.716431 
	C470.515198,183.577393 470.515198,159.639557 470.515198,135.347137 
	C480.256775,135.347137 489.660461,135.347137 499.975922,135.347137 
	C499.975922,161.028992 499.975922,186.764496 499.975922,213.000000 
z"/>
<path fill="#030303" opacity="1.000000" stroke="none" 
	d="
M1213.647583,268.000244 
	C1213.647583,280.120941 1213.647583,291.741669 1213.647583,303.566345 
	C1203.587891,303.566345 1194.184937,303.566345 1184.438477,303.566345 
	C1184.438477,247.445221 1184.438477,191.562668 1184.438477,135.333618 
	C1193.997437,135.333618 1203.415649,135.333618 1213.350952,135.333618 
	C1213.350952,159.350739 1213.350952,183.417770 1213.350952,207.746765 
	C1240.969727,207.746765 1268.077637,207.746765 1295.741089,207.746765 
	C1295.741089,183.793427 1295.741089,159.739044 1295.741089,135.339874 
	C1305.687256,135.339874 1315.084839,135.339874 1324.882446,135.339874 
	C1324.882446,191.293137 1324.882446,247.175156 1324.882446,303.430145 
	C1315.454224,303.430145 1306.056885,303.430145 1296.127686,303.430145 
	C1296.127686,280.928223 1296.127686,258.374634 1296.127686,235.470490 
	C1268.548584,235.470490 1241.492188,235.470490 1213.647583,235.470490 
	C1213.647583,246.023239 1213.647583,256.761719 1213.647583,268.000244 
z"/>
<path fill="#040404" opacity="1.000000" stroke="none" 
	d="
M1051.846191,238.615158 
	C1051.981689,239.567245 1052.057129,240.061371 1052.132812,240.555466 
	C1055.836304,264.739136 1079.297485,275.417236 1100.406860,262.482727 
	C1106.407837,258.805695 1109.955811,253.097137 1111.571655,246.519760 
	C1113.028198,240.591721 1114.032227,234.411667 1114.148926,228.321960 
	C1114.483521,210.851486 1114.266724,193.370438 1114.266724,175.508926 
	C1123.417969,175.508926 1132.292969,175.508926 1141.485107,175.508926 
	C1141.610474,176.594543 1141.850098,177.700592 1141.849731,178.806534 
	C1141.834717,216.628693 1142.327148,254.461349 1141.576904,292.269287 
	C1141.074341,317.593872 1130.935181,338.257294 1106.623535,349.238770 
	C1083.879883,359.511993 1048.294434,356.175995 1029.807251,334.260956 
	C1025.167603,328.761017 1021.745728,322.233765 1017.331970,315.521362 
	C1026.637939,311.544189 1034.807251,308.052734 1043.233398,304.451569 
	C1047.170654,313.113342 1051.864136,320.576050 1060.290771,324.998627 
	C1074.411865,332.409821 1093.867432,330.205963 1103.834351,319.656830 
	C1110.436401,312.669067 1112.599365,303.770721 1113.572388,294.567932 
	C1114.105957,289.521454 1114.083496,284.416168 1114.360718,278.247559 
	C1112.352539,279.835327 1111.267212,280.734344 1110.140503,281.578186 
	C1090.539917,296.259003 1069.173462,297.222809 1047.318481,288.326294 
	C1034.896606,283.269714 1028.528564,272.281219 1025.716187,259.490997 
	C1024.472534,253.834763 1023.677612,247.968246 1023.606567,242.185806 
	C1023.350769,221.361481 1023.484497,200.532318 1023.493713,179.704971 
	C1023.494263,178.409378 1023.688904,177.113892 1023.814148,175.558624 
	C1032.963013,175.558624 1041.852783,175.558624 1051.786499,175.558624 
	C1051.786499,196.604660 1051.786499,217.380920 1051.846191,238.615158 
z"/>
<path fill="#030303" opacity="1.000000" stroke="none" 
	d="
M864.092957,282.999939 
	C864.092957,246.905746 864.092957,211.311554 864.092957,175.422028 
	C873.501648,175.422028 882.411072,175.422028 891.758179,175.422028 
	C891.758179,181.815765 891.758179,188.216904 891.758179,194.975250 
	C892.641357,194.703491 893.198486,194.709396 893.383118,194.450058 
	C913.787109,165.797546 948.552124,169.808533 969.193115,184.366989 
	C985.469666,195.847122 993.929382,211.663376 995.295959,231.520126 
	C996.494263,248.932098 994.100342,265.366882 983.621460,279.900757 
	C962.108093,309.739044 922.061096,315.502716 894.809753,288.295654 
	C894.154419,287.641418 893.445251,287.041107 892.138794,285.846588 
	C892.138794,307.732178 892.138794,328.787933 892.138794,350.176697 
	C882.706604,350.176697 873.660950,350.176697 864.092957,350.176697 
	C864.092957,327.716705 864.092957,305.608337 864.092957,282.999939 
M914.635803,200.897339 
	C911.596375,202.901428 908.173157,204.503326 905.581421,206.976517 
	C891.298157,220.606125 888.739502,237.425201 894.250671,255.461456 
	C900.844788,277.041656 926.226196,286.941010 946.287170,276.564331 
	C959.007874,269.984436 969.949585,255.622086 967.335327,233.440170 
	C964.254578,207.299744 939.975098,191.689285 914.635803,200.897339 
z"/>
<path fill="#030303" opacity="1.000000" stroke="none" 
	d="
M767.549988,305.480591 
	C752.918335,303.646027 741.571045,296.515991 731.155762,285.956665 
	C731.155762,307.591919 731.155762,328.589233 731.155762,350.465240 
	C722.078857,350.465240 713.513000,350.519409 704.950867,350.365387 
	C704.244751,350.352692 703.369324,349.022034 702.934998,348.127716 
	C702.606262,347.450684 702.848389,346.493042 702.848389,345.660278 
	C702.847107,290.183105 702.845703,234.705948 702.856689,179.228790 
	C702.856934,178.086533 703.002319,176.944321 703.102539,175.469650 
	C712.165833,175.469650 721.088257,175.469650 730.500488,175.469650 
	C730.500488,181.746521 730.500488,188.158646 730.500488,194.951401 
	C731.428345,194.638962 731.968689,194.630707 732.154846,194.369766 
	C750.919495,168.064133 781.743530,169.198593 802.910461,181.308640 
	C822.810059,192.693619 832.796082,210.294205 834.092651,233.121796 
	C835.168335,252.061676 831.598694,269.570160 818.867371,284.256592 
	C805.484863,299.694244 788.622131,307.219147 767.549988,305.480591 
M804.114685,254.450745 
	C808.275818,241.671844 807.239563,229.318741 800.817200,217.523346 
	C788.569336,195.028656 758.303772,190.787079 741.655823,209.513153 
	C729.047485,223.695312 727.255005,240.387146 733.939941,257.533936 
	C740.512634,274.392792 755.016907,281.335297 769.022644,280.616333 
	C785.952515,279.747284 797.440125,270.721497 804.114685,254.450745 
z"/>
<path fill="#030303" opacity="1.000000" stroke="none" 
	d="
M1440.347412,301.386536 
	C1405.076416,315.119354 1366.477783,292.474609 1360.170776,254.602509 
	C1358.216309,242.866425 1358.258423,231.089233 1361.105835,219.449432 
	C1369.219849,186.280762 1406.148560,165.270767 1437.436523,176.041016 
	C1447.530518,179.515656 1455.058472,186.400894 1462.207520,195.636749 
	C1462.207520,188.403839 1462.207520,182.124786 1462.207520,175.495041 
	C1471.784790,175.495041 1480.679565,175.495041 1490.010986,175.495041 
	C1490.010986,218.058456 1490.010986,260.715790 1490.010986,303.589355 
	C1480.999146,303.589355 1472.214722,303.589355 1462.785278,303.589355 
	C1462.785278,297.732635 1462.785278,291.867828 1462.785278,286.480591 
	C1455.254761,291.496979 1447.968994,296.350220 1440.347412,301.386536 
M1404.772949,274.856720 
	C1424.694824,285.685516 1443.393799,282.145752 1455.771362,264.555389 
	C1464.217651,252.552078 1464.811646,238.885147 1460.605835,225.365585 
	C1456.366699,211.739136 1447.550659,201.806824 1432.919556,198.734924 
	C1418.221558,195.649017 1406.279419,200.543076 1396.515137,211.882782 
	C1382.615112,228.025024 1382.154663,259.697784 1404.772949,274.856720 
z"/>
<path fill="#040404" opacity="1.000000" stroke="none" 
	d="
M1715.051514,207.049255 
	C1724.379395,197.273102 1733.351929,187.643494 1742.645752,178.334763 
	C1744.375122,176.602631 1747.369141,175.347961 1749.826416,175.264938 
	C1759.897339,174.924576 1769.986450,175.122818 1781.619629,175.122818 
	C1764.699585,192.841766 1748.796997,209.495178 1732.634277,226.421097 
	C1749.898926,251.992218 1767.064209,277.416138 1784.874023,303.794525 
	C1773.275757,303.794525 1762.728149,303.896973 1752.188721,303.650787 
	C1751.014160,303.623352 1749.646484,301.776703 1748.772217,300.497650 
	C1737.046875,283.343475 1725.393555,266.140045 1713.496826,248.616592 
	C1707.260986,254.736465 1701.158813,260.550232 1695.329590,266.625824 
	C1694.403442,267.591125 1694.484863,269.733154 1694.474487,271.333496 
	C1694.405640,281.960480 1694.438843,292.588135 1694.438843,303.507202 
	C1685.029907,303.507202 1676.121704,303.507202 1666.834229,303.507202 
	C1666.834229,244.086349 1666.834229,184.713898 1666.834229,125.034973 
	C1675.846313,125.034973 1684.763184,125.034973 1694.267578,125.034973 
	C1694.267578,159.045334 1694.267578,193.059006 1694.267578,225.552551 
	C1700.783691,219.764114 1707.795410,213.535370 1715.051514,207.049255 
z"/>
<path fill="#030303" opacity="1.000000" stroke="none" 
	d="
M535.455627,257.434082 
	C532.301453,240.008255 532.552551,223.263016 540.204468,207.320755 
	C552.781128,181.118408 585.777893,166.796783 612.121216,176.048431 
	C621.000061,179.166611 628.014038,184.927933 633.973511,192.075546 
	C634.717041,192.967285 635.424255,193.889359 636.168701,194.780319 
	C636.213684,194.834167 636.439758,194.736664 637.080200,194.614426 
	C637.080200,188.354065 637.080200,181.979843 637.080200,175.375656 
	C646.495178,175.375656 655.413269,175.375656 664.694702,175.375656 
	C664.694702,218.062729 664.694702,260.605469 664.694702,303.475739 
	C655.703613,303.475739 646.785339,303.475739 637.297729,303.475739 
	C637.297729,297.531616 637.297729,291.496155 637.297729,284.392639 
	C620.089600,303.807587 599.646545,310.518890 576.058411,302.802673 
	C554.447327,295.733246 540.917114,280.175507 535.455627,257.434082 
M580.803711,203.190002 
	C558.900024,216.853821 555.290466,249.587372 571.238037,267.811096 
	C584.814453,283.325287 608.726562,285.546692 623.928833,271.806427 
	C638.463135,258.669830 640.205261,241.952255 634.906860,224.310898 
	C627.877625,200.906723 602.781860,191.103653 580.803711,203.190002 
z"/>
<path fill="#030303" opacity="1.000000" stroke="none" 
	d="
M1895.633423,279.448425 
	C1889.296387,294.591187 1877.415039,302.196930 1862.316895,304.614349 
	C1837.311401,308.618103 1815.101318,301.168701 1794.272949,286.392914 
	C1798.804810,279.067108 1803.134888,272.067627 1807.706299,264.678009 
	C1809.764404,266.000214 1811.557983,267.105499 1813.303833,268.281799 
	C1825.875244,276.752075 1839.374390,282.717926 1854.864868,280.928467 
	C1859.268799,280.419739 1864.067505,277.877106 1867.401855,274.852448 
	C1872.283447,270.423859 1871.701416,263.864716 1866.150024,260.253021 
	C1860.385986,256.502930 1853.895508,253.753464 1847.490479,251.134171 
	C1839.661743,247.932526 1831.321655,245.897873 1823.687134,242.323563 
	C1811.438477,236.589066 1802.316406,227.729965 1802.231567,213.112152 
	C1802.140747,197.466492 1809.756592,185.741669 1823.826904,179.454544 
	C1848.423950,168.463852 1872.004150,172.172211 1894.810303,186.487579 
	C1891.315552,193.468063 1887.990234,200.110001 1884.846802,206.388596 
	C1877.153809,203.588760 1869.935791,199.993927 1862.304321,198.472214 
	C1855.462402,197.107956 1848.152710,197.750412 1841.076660,198.084747 
	C1838.601074,198.201706 1835.960449,199.680481 1833.820801,201.154892 
	C1827.044189,205.824524 1827.428345,215.190948 1834.878174,218.559387 
	C1841.016357,221.334778 1847.769531,222.724152 1854.182617,224.924530 
	C1861.547607,227.451477 1869.095947,229.647476 1876.111816,232.949402 
	C1895.528564,242.087845 1901.977661,256.922638 1896.188599,277.648865 
	C1896.054077,278.130127 1895.936157,278.615967 1895.633423,279.448425 
z"/>
<path fill="#030303" opacity="1.000000" stroke="none" 
	d="
M1532.713623,199.735107 
	C1559.791138,165.242264 1613.492676,165.681625 1638.496948,193.947952 
	C1633.195190,200.445892 1627.861694,206.982803 1622.200684,213.921219 
	C1610.049438,203.234665 1596.640625,197.034943 1580.404785,200.093658 
	C1569.998413,202.054169 1561.520996,207.446655 1555.084106,215.777130 
	C1543.650024,230.574799 1545.802246,253.881302 1559.700195,267.940308 
	C1576.849121,285.287964 1597.230957,284.150055 1623.645386,264.066193 
	C1628.954834,269.837677 1634.303223,275.651459 1639.633423,281.445496 
	C1616.576538,308.233551 1573.850342,314.069672 1545.529419,292.935699 
	C1517.139648,271.750336 1511.197754,230.367584 1532.713623,199.735107 
z"/>
<path fill="#59B68D" opacity="1.000000" stroke="none" 
	d="
M167.958557,205.952911 
	C176.006134,197.095795 182.952408,187.468918 191.787521,180.109634 
	C212.176865,163.126144 242.263672,163.421219 262.555115,180.574677 
	C270.582672,187.360825 276.957977,196.107407 284.017303,204.022263 
	C284.611328,204.688248 284.952667,205.816574 284.959045,206.733246 
	C285.025848,216.337051 285.000275,225.941513 285.000275,235.545792 
	C284.568085,235.801758 284.135895,236.057724 283.703705,236.313690 
	C278.336670,229.942352 273.093872,223.460938 267.570557,217.228104 
	C260.979858,209.790695 255.027756,201.406754 247.233215,195.498581 
	C232.463806,184.303528 212.402130,187.073914 199.503387,201.204971 
	C191.106949,210.403595 183.624588,220.429810 175.534683,229.916397 
	C157.447372,251.126465 132.004044,257.540863 106.723824,247.093933 
	C93.314117,241.552429 84.258972,230.812134 75.704132,219.650391 
	C75.244606,219.050827 75.033333,218.114883 75.029869,217.334091 
	C74.985718,207.390900 75.000778,197.447464 76.123428,186.884781 
	C81.501305,193.449066 86.695618,200.175507 92.309860,206.530991 
	C97.680557,212.610809 102.811165,219.218613 109.241959,223.981277 
	C123.280212,234.378052 141.023911,233.128510 154.092636,221.412445 
	C159.128326,216.897980 163.202789,211.311310 167.958557,205.952911 
z"/>
<path fill="#59B58D" opacity="1.000000" stroke="none" 
	d="
M271.550049,278.448792 
	C275.847321,281.628387 279.894104,284.557373 284.826141,288.127075 
	C284.826141,293.133545 284.826141,299.753082 284.826141,306.851410 
	C276.539246,307.011780 269.422028,304.398071 263.191193,299.431366 
	C259.687927,296.638794 256.547363,293.391144 253.244125,290.347717 
	C246.959076,284.556915 238.861115,284.589386 232.674210,290.428314 
	C230.375000,292.598206 228.051941,294.743164 225.772446,296.933533 
	C211.473282,310.673737 189.652084,310.732971 174.305496,295.408691 
	C172.537506,293.643250 170.814407,291.822815 168.942154,290.173615 
	C162.412201,284.421570 154.931580,284.889435 148.361511,290.599640 
	C142.642151,295.570465 136.970413,301.332367 130.200333,304.211182 
	C114.005951,311.097412 100.197968,305.427338 88.208534,293.476105 
	C84.708763,289.987488 80.214157,287.496887 75.187042,283.827240 
	C75.187042,278.982819 75.187042,272.358795 75.187042,265.181244 
	C83.399429,264.881409 90.441116,267.659485 96.710747,272.487274 
	C99.993965,275.015472 102.952209,277.982605 105.944160,280.868713 
	C112.993317,287.668488 120.638878,287.443726 128.032913,281.034698 
	C133.870407,275.974854 139.806793,270.224487 146.763275,267.421295 
	C163.182800,260.804871 176.788345,267.416565 188.511703,279.316010 
	C190.685242,281.522186 193.235779,283.671082 196.029770,284.887939 
	C202.305496,287.621185 207.666397,285.334198 212.224167,280.674347 
	C218.431030,274.328430 224.873779,268.284363 233.853958,266.109741 
	C248.774673,262.496490 260.927185,267.632843 271.550049,278.448792 
z"/>
<path fill="#5AB68D" opacity="1.000000" stroke="none" 
	d="
M152.143539,192.208862 
	C148.653641,196.426666 145.400269,200.381882 142.176834,204.300720 
	C122.864899,190.343475 112.521912,161.439011 123.549583,134.067535 
	C133.139572,110.264519 161.483597,93.744644 186.195236,97.269562 
	C216.989014,101.662048 236.095230,125.983276 238.287552,147.161057 
	C232.210205,147.161057 226.113190,147.358582 220.047363,147.011261 
	C218.666580,146.932190 216.762421,145.234650 216.168777,143.830017 
	C210.190140,129.683716 199.944855,121.064484 184.659470,118.526016 
	C169.968613,116.086281 153.791626,123.822449 145.705566,137.323944 
	C137.655518,150.765305 138.433365,168.779205 147.656143,180.492599 
	C149.806503,183.223663 152.205124,185.759277 154.727249,188.658066 
	C154.053513,189.601929 153.216782,190.774109 152.143539,192.208862 
z"/>
<path fill="#FEFEFE" opacity="1.000000" stroke="none" 
	d="
M914.989014,200.736481 
	C939.975098,191.689285 964.254578,207.299744 967.335327,233.440170 
	C969.949585,255.622086 959.007874,269.984436 946.287170,276.564331 
	C926.226196,286.941010 900.844788,277.041656 894.250671,255.461456 
	C888.739502,237.425201 891.298157,220.606125 905.581421,206.976517 
	C908.173157,204.503326 911.596375,202.901428 914.989014,200.736481 
z"/>
<path fill="#FDFDFD" opacity="1.000000" stroke="none" 
	d="
M804.061523,254.844208 
	C797.440125,270.721497 785.952515,279.747284 769.022644,280.616333 
	C755.016907,281.335297 740.512634,274.392792 733.939941,257.533936 
	C727.255005,240.387146 729.047485,223.695312 741.655823,209.513153 
	C758.303772,190.787079 788.569336,195.028656 800.817200,217.523346 
	C807.239563,229.318741 808.275818,241.671844 804.061523,254.844208 
z"/>
<path fill="#FDFDFD" opacity="1.000000" stroke="none" 
	d="
M1404.474854,274.645111 
	C1382.154663,259.697784 1382.615112,228.025024 1396.515137,211.882782 
	C1406.279419,200.543076 1418.221558,195.649017 1432.919556,198.734924 
	C1447.550659,201.806824 1456.366699,211.739136 1460.605835,225.365585 
	C1464.811646,238.885147 1464.217651,252.552078 1455.771362,264.555389 
	C1443.393799,282.145752 1424.694824,285.685516 1404.474854,274.645111 
z"/>
<path fill="#FEFEFE" opacity="1.000000" stroke="none" 
	d="
M581.125671,203.012390 
	C602.781860,191.103653 627.877625,200.906723 634.906860,224.310898 
	C640.205261,241.952255 638.463135,258.669830 623.928833,271.806427 
	C608.726562,285.546692 584.814453,283.325287 571.238037,267.811096 
	C555.290466,249.587372 558.900024,216.853821 581.125671,203.012390 
z"/>
</svg>