<svg version="1.1" id="Layer_1" xmlns="http://www.w3.org/2000/svg" xmlns:xlink="http://www.w3.org/1999/xlink" x="0px" y="0px"
	 width="100%" viewBox="0 0 1500 500" enable-background="new 0 0 1500 500" xml:space="preserve">
<path fill="#FFFFFF" opacity="1.000000" stroke="none" 
	d="
M987.000000,501.000000 
	C658.041016,501.000000 329.582031,501.000000 1.061531,501.000000 
	C1.061531,334.395172 1.061531,167.790344 1.061531,1.092749 
	C500.875702,1.092749 1000.751465,1.092749 1500.813599,1.092749 
	C1500.813599,167.666504 1500.813599,334.333221 1500.813599,501.000000 
	C1329.790161,501.000000 1158.645142,501.000000 987.000000,501.000000 
M384.762909,290.742401 
	C387.738281,288.134613 390.744995,285.561615 393.683136,282.912506 
	C402.364075,275.085480 411.017914,267.228455 419.768402,260.394165 
	C419.768402,270.795410 419.768402,281.196625 419.768402,291.633850 
	C427.163086,291.633850 434.011902,291.633850 441.163239,291.633850 
	C441.163239,272.851379 441.163239,254.434509 441.745728,235.715820 
	C445.891510,230.953796 450.063507,226.214310 454.178802,221.426086 
	C481.615051,189.503387 505.751038,155.408295 522.577820,116.581619 
	C531.290222,96.478386 537.536133,75.856049 536.099854,53.463757 
	C534.884094,34.510670 522.018738,19.249222 503.446777,15.962313 
	C484.489960,12.607288 466.355011,16.716822 448.687408,22.933746 
	C424.573547,31.419003 402.269684,43.651669 381.003510,57.736050 
	C340.699646,84.428970 304.898224,116.258293 272.856384,152.443390 
	C241.283890,188.098480 213.156418,225.984268 194.520493,270.200439 
	C186.649643,288.875031 180.851303,308.023834 181.985733,328.659088 
	C183.648773,358.910309 204.737259,370.006378 228.434265,369.571075 
	C250.716705,369.161774 271.376068,361.517639 291.355408,352.147552 
	C324.690857,336.513763 354.672943,315.744904 383.395782,291.982941 
	C383.662292,291.679504 383.928802,291.376068 384.762909,290.742401 
M945.787537,281.482880 
	C945.787537,284.905853 945.787537,288.328857 945.787537,291.716553 
	C953.210266,291.716553 959.950562,291.716553 966.711609,291.716553 
	C966.711609,260.389374 966.711609,229.346451 966.711609,198.257446 
	C959.672058,198.257446 952.923096,198.257446 945.670227,198.257446 
	C945.670227,210.233261 945.670227,221.962158 945.670227,233.728531 
	C933.585022,233.728531 922.010254,233.728531 909.952026,233.728531 
	C909.952026,221.742584 909.952026,210.019073 909.952026,198.285385 
	C902.725525,198.285385 895.988647,198.285385 889.238525,198.285385 
	C889.238525,229.611542 889.238525,260.651520 889.238525,291.714569 
	C896.274597,291.714569 903.011475,291.714569 910.221008,291.714569 
	C910.221008,278.376831 910.221008,265.317780 910.221008,252.306091 
	C922.272339,252.306091 933.841614,252.306091 945.787476,252.306091 
	C945.787476,261.901184 945.787476,271.193604 945.787537,281.482880 
M629.853088,262.143494 
	C629.903870,259.146240 630.182983,256.132385 629.966614,253.154572 
	C628.925964,238.829498 623.212280,227.368500 609.092468,221.960220 
	C593.831787,216.114975 578.697632,219.740570 563.773071,222.845642 
	C563.773071,254.608078 563.773071,285.685608 563.773071,316.750610 
	C570.558899,316.750610 576.993896,316.750610 583.951172,316.750610 
	C583.951172,307.811371 583.951172,299.118500 583.951172,290.077148 
	C593.029297,293.431488 601.690552,294.328003 610.309998,291.009125 
	C623.030945,286.110962 627.822571,275.540161 629.853088,262.143494 
M670.113037,220.729080 
	C666.580322,221.475891 663.047668,222.222702 659.803467,222.908524 
	C659.803467,254.646530 659.803467,285.713593 659.803467,316.726318 
	C666.614624,316.726318 673.044189,316.726318 680.007385,316.726318 
	C680.007385,307.771942 680.007385,299.092804 680.007385,290.397766 
	C683.585327,291.241516 686.611084,292.170288 689.706421,292.648499 
	C704.759277,294.973969 717.744751,287.682648 722.945862,274.053162 
	C726.165710,265.615570 726.911865,256.884735 725.360229,248.033386 
	C722.624878,232.428879 713.850769,222.593002 698.211914,220.206757 
	C689.356689,218.855560 680.064880,220.365616 670.113037,220.729080 
M1206.408203,277.170288 
	C1209.044067,281.202759 1211.579224,285.307098 1214.376465,289.224335 
	C1215.228394,290.417389 1216.773926,291.836548 1218.050049,291.885132 
	C1224.920166,292.146484 1231.805542,292.008759 1239.308716,292.008759 
	C1231.332275,276.427612 1221.063232,263.542511 1209.803345,251.564682 
	C1219.409180,241.075363 1228.726929,230.900635 1238.720337,219.988037 
	C1231.311646,219.988037 1225.299805,220.271637 1219.331299,219.885117 
	C1215.554443,219.640533 1213.248413,221.095993 1210.897949,223.775787 
	C1205.060425,230.431030 1198.939453,236.837738 1192.932373,243.344315 
	C1192.567261,243.177673 1192.202026,243.011047 1191.836914,242.844406 
	C1191.836914,223.993378 1191.836914,205.142349 1191.836914,185.981995 
	C1184.739258,187.140396 1178.241821,188.200867 1171.792236,189.253510 
	C1171.792236,223.699799 1171.792236,257.736450 1171.792236,291.740173 
	C1178.591309,291.740173 1185.019775,291.740173 1191.992676,291.740173 
	C1191.992676,281.471344 1191.992676,271.461334 1191.992676,261.451324 
	C1192.404053,261.269104 1192.815430,261.086884 1193.226807,260.904663 
	C1197.476318,266.135925 1201.725708,271.367218 1206.408203,277.170288 
M811.196289,219.992004 
	C805.888611,219.992004 800.580994,219.992004 795.399719,219.992004 
	C790.830200,235.475891 786.358826,250.627426 781.887390,265.778961 
	C781.289795,265.771423 780.692200,265.763855 780.094543,265.756317 
	C775.217102,250.563797 770.339600,235.371262 765.456726,220.161850 
	C758.643433,220.161850 751.839478,220.161850 744.678955,220.161850 
	C745.040222,221.662842 745.295776,222.935196 745.653198,224.178238 
	C751.586121,244.808807 759.302612,264.765533 769.049255,283.876831 
	C771.124939,287.946899 770.741394,290.800262 768.429688,294.329437 
	C765.872864,298.232758 762.369751,300.030762 757.975952,299.914551 
	C754.415894,299.820374 750.873047,299.078064 747.107605,298.595703 
	C745.975830,303.768860 744.855713,308.888702 743.761963,313.888123 
	C761.808411,321.523804 777.251526,316.329346 785.902466,299.486542 
	C790.666992,290.210419 794.865295,280.584839 798.553101,270.827362 
	C804.826782,254.227768 810.496033,237.399750 816.559692,220.270996 
	C814.406982,220.136139 813.257080,220.064117 811.196289,219.992004 
M1003.076355,222.302719 
	C1003.640686,227.777939 1004.205017,233.253159 1004.653198,237.601227 
	C1013.052124,237.113266 1020.494812,236.079391 1027.873901,236.420807 
	C1035.295776,236.764221 1038.808838,242.178482 1037.447144,247.629257 
	C1028.995728,248.320312 1020.798401,248.228714 1012.938599,249.812149 
	C1001.201233,252.176773 995.681335,259.912262 995.914246,271.498840 
	C996.144653,282.962585 1002.220398,290.629791 1013.730408,292.803558 
	C1028.309937,295.557068 1042.730957,293.721008 1056.916748,290.487854 
	C1056.916748,273.692230 1057.544556,257.286499 1056.708740,240.955688 
	C1056.092773,228.923050 1048.366699,221.986053 1036.359863,219.876572 
	C1025.316895,217.936462 1014.520264,219.339676 1003.076355,222.302719 
M510.672394,219.780273 
	C499.490509,217.900925 488.609375,219.453262 477.408630,222.377701 
	C478.322906,228.029968 479.181000,233.334900 479.872406,237.609421 
	C487.970703,237.126129 495.400574,236.089996 502.771851,236.408783 
	C510.210052,236.730453 513.634766,241.904419 512.486877,247.605362 
	C503.934875,248.337845 495.573303,248.264328 487.571716,249.925201 
	C475.697662,252.389862 470.433624,260.399933 470.936157,272.873138 
	C471.364380,283.500885 478.326782,291.116974 489.576935,292.982147 
	C503.892059,295.355469 517.970581,293.630920 531.865662,290.504852 
	C531.865662,273.669220 532.544128,257.101135 531.637756,240.620239 
	C530.984680,228.743759 523.691650,222.336044 510.672394,219.780273 
M1260.758911,282.949219 
	C1260.274658,285.165070 1259.790405,287.380890 1259.299683,289.626160 
	C1271.826904,294.445374 1284.198608,295.490112 1296.585205,292.563293 
	C1301.195801,291.473846 1306.108398,288.915771 1309.413208,285.573700 
	C1318.546143,276.337860 1315.306274,259.391052 1303.526245,253.284622 
	C1297.805542,250.319138 1291.474487,248.537018 1285.724365,245.618759 
	C1283.769409,244.626511 1282.747559,241.795380 1281.299316,239.804550 
	C1283.417358,238.266800 1285.355713,235.904953 1287.697754,235.393829 
	C1290.830688,234.710114 1294.306641,235.231644 1297.579834,235.659485 
	C1300.949585,236.099930 1304.252686,237.049637 1307.806274,237.824783 
	C1308.968018,232.649216 1310.049072,227.833084 1311.220947,222.612274 
	C1299.419189,219.046555 1287.939575,217.186356 1276.205200,220.998627 
	C1264.215942,224.893677 1258.691040,235.250031 1261.960571,247.309708 
	C1264.335571,256.069977 1271.490967,259.627106 1278.892090,262.915405 
	C1282.980103,264.731689 1287.299194,266.156799 1291.084351,268.463593 
	C1292.630371,269.405914 1293.944214,272.350281 1293.676636,274.130219 
	C1293.465698,275.532471 1290.760498,277.367737 1289.001465,277.564545 
	C1285.079712,278.003235 1281.002319,277.912384 1277.088989,277.344177 
	C1272.268799,276.644226 1267.551025,275.239532 1262.564697,274.087585 
	C1261.980713,276.978790 1261.458618,279.564270 1260.758911,282.949219 
M1143.521240,287.555389 
	C1142.649414,283.126038 1141.777710,278.696716 1140.964478,274.564636 
	C1130.337402,276.739594 1119.760864,280.595673 1111.600464,271.876862 
	C1104.948120,264.769135 1105.156738,255.101807 1108.747070,246.460144 
	C1114.882690,231.692337 1127.330811,236.170761 1138.518066,238.219955 
	C1139.346924,235.397827 1140.094360,233.035980 1140.728027,230.643997 
	C1141.390381,228.143219 1141.943237,225.613403 1142.515503,223.215149 
	C1116.492920,211.580139 1084.899170,224.173187 1086.197754,259.061005 
	C1086.641357,270.978790 1090.196411,281.696869 1101.224976,288.284088 
	C1114.196533,296.031830 1127.867798,295.123322 1141.669067,291.070038 
	C1142.502686,290.825256 1142.957886,289.292358 1143.521240,287.555389 
z"/>
<path fill="#FFD060" opacity="1.000000" stroke="none" 
	d="
M382.789276,292.145111 
	C354.672943,315.744904 324.690857,336.513763 291.355408,352.147552 
	C271.376068,361.517639 250.716705,369.161774 228.434265,369.571075 
	C204.737259,370.006378 183.648773,358.910309 181.985733,328.659088 
	C180.851303,308.023834 186.649643,288.875031 194.520493,270.200439 
	C213.156418,225.984268 241.283890,188.098480 272.856384,152.443390 
	C304.898224,116.258293 340.699646,84.428970 381.003510,57.736050 
	C402.269684,43.651669 424.573547,31.419003 448.687408,22.933746 
	C466.355011,16.716822 484.489960,12.607288 503.446777,15.962313 
	C522.018738,19.249222 534.884094,34.510670 536.099854,53.463757 
	C537.536133,75.856049 531.290222,96.478386 522.577820,116.581619 
	C505.751038,155.408295 481.615051,189.503387 454.178802,221.426086 
	C450.063507,226.214310 445.891510,230.953796 441.388519,235.402359 
	C441.068207,223.124603 441.105103,211.160294 441.429321,199.010330 
	C443.082153,197.152634 444.448822,195.481552 445.812988,193.808426 
	C468.596283,165.865570 488.585327,136.179382 502.247833,102.608162 
	C508.222992,87.926140 512.993530,72.943657 512.225952,56.744347 
	C511.701508,45.676159 506.348572,39.530693 495.371124,39.140320 
	C488.795990,38.906498 482.052368,39.417900 475.593109,40.670319 
	C456.505981,44.371223 438.928986,52.260616 421.907104,61.407486 
	C389.059143,79.058678 359.236420,101.080566 332.303070,126.672699 
	C313.061707,144.955902 294.783173,164.377426 277.322449,184.379944 
	C251.849152,213.561539 230.558960,245.681763 215.813553,281.732697 
	C209.700211,296.679138 204.725388,311.999359 205.984406,328.577423 
	C206.747528,338.625824 211.901825,344.706757 221.873840,344.878174 
	C230.429291,345.025208 239.251129,344.510223 247.540649,342.542053 
	C273.569397,336.362183 296.801270,323.640503 318.993927,309.200714 
	C334.019012,299.424530 348.229218,288.395905 362.882599,278.392212 
	C362.961304,283.103241 362.961304,287.349487 362.961304,292.145111 
	C369.971008,292.145111 376.380127,292.145111 382.789276,292.145111 
z"/>
<path fill="#4A4A4A" opacity="1.000000" stroke="none" 
	d="
M383.092529,292.064026 
	C376.380127,292.145111 369.971008,292.145111 362.961304,292.145111 
	C362.961304,287.349487 362.961304,283.103241 362.942627,277.932251 
	C362.923950,250.793777 362.923950,224.580048 362.923950,198.246536 
	C370.203308,198.246536 376.931976,198.246536 384.123260,198.246536 
	C384.123260,210.197067 384.123260,221.910904 384.123260,233.808823 
	C393.358582,233.808823 402.131592,233.808823 411.362976,233.887009 
	C414.388641,233.965195 416.955933,233.965195 419.688049,233.965195 
	C419.688049,230.303909 419.688049,227.097183 419.729614,223.430817 
	C419.771210,214.748444 419.771210,206.525742 419.771210,198.000427 
	C425.206390,198.000427 429.997803,197.881378 434.778656,198.054718 
	C436.910736,198.132004 439.021545,198.797485 441.141998,199.195999 
	C441.105103,211.160294 441.068207,223.124603 441.097290,235.553284 
	C441.163239,254.434509 441.163239,272.851379 441.163239,291.633850 
	C434.011902,291.633850 427.163086,291.633850 419.768402,291.633850 
	C419.768402,281.196625 419.768402,270.795410 419.845337,259.526428 
	C419.922241,256.570343 419.922241,254.481979 419.922241,252.131073 
	C410.018494,252.131073 400.612244,252.131073 390.742737,252.069016 
	C388.255402,252.006958 386.231323,252.006958 384.184662,252.006958 
	C384.184662,254.759369 384.184662,256.843170 384.110138,259.394897 
	C384.088867,270.266113 384.142090,280.669373 384.195312,291.072632 
	C383.928802,291.376068 383.662292,291.679504 383.092529,292.064026 
z"/>
<path fill="#4A4A4A" opacity="1.000000" stroke="none" 
	d="
M945.787476,280.984436 
	C945.787476,271.193604 945.787476,261.901184 945.787476,252.306091 
	C933.841614,252.306091 922.272339,252.306091 910.221008,252.306091 
	C910.221008,265.317780 910.221008,278.376831 910.221008,291.714569 
	C903.011475,291.714569 896.274597,291.714569 889.238525,291.714569 
	C889.238525,260.651520 889.238525,229.611542 889.238525,198.285385 
	C895.988647,198.285385 902.725525,198.285385 909.952026,198.285385 
	C909.952026,210.019073 909.952026,221.742584 909.952026,233.728531 
	C922.010254,233.728531 933.585022,233.728531 945.670227,233.728531 
	C945.670227,221.962158 945.670227,210.233261 945.670227,198.257446 
	C952.923096,198.257446 959.672058,198.257446 966.711609,198.257446 
	C966.711609,229.346451 966.711609,260.389374 966.711609,291.716553 
	C959.950562,291.716553 953.210266,291.716553 945.787537,291.716553 
	C945.787537,288.328857 945.787537,284.905853 945.787476,280.984436 
z"/>
<path fill="#4E4E4E" opacity="1.000000" stroke="none" 
	d="
M629.789062,262.593628 
	C627.822571,275.540161 623.030945,286.110962 610.309998,291.009125 
	C601.690552,294.328003 593.029297,293.431488 583.951172,290.077148 
	C583.951172,299.118500 583.951172,307.811371 583.951172,316.750610 
	C576.993896,316.750610 570.558899,316.750610 563.773071,316.750610 
	C563.773071,285.685608 563.773071,254.608078 563.773071,222.845642 
	C578.697632,219.740570 593.831787,216.114975 609.092468,221.960220 
	C623.212280,227.368500 628.925964,238.829498 629.966614,253.154572 
	C630.182983,256.132385 629.903870,259.146240 629.789062,262.593628 
M586.208557,274.275940 
	C601.656128,278.706909 608.719116,273.613678 609.155212,257.718689 
	C609.186890,256.564911 609.176697,255.407806 609.130737,254.254440 
	C608.549622,239.673096 598.101868,232.537018 583.873962,237.329407 
	C583.873962,248.508759 583.837219,259.801575 583.940430,271.093079 
	C583.949097,272.046631 584.895569,272.991547 586.208557,274.275940 
z"/>
<path fill="#4E4E4E" opacity="1.000000" stroke="none" 
	d="
M670.541382,220.658020 
	C680.064880,220.365616 689.356689,218.855560 698.211914,220.206757 
	C713.850769,222.593002 722.624878,232.428879 725.360229,248.033386 
	C726.911865,256.884735 726.165710,265.615570 722.945862,274.053162 
	C717.744751,287.682648 704.759277,294.973969 689.706421,292.648499 
	C686.611084,292.170288 683.585327,291.241516 680.007385,290.397766 
	C680.007385,299.092804 680.007385,307.771942 680.007385,316.726318 
	C673.044189,316.726318 666.614624,316.726318 659.803467,316.726318 
	C659.803467,285.713593 659.803467,254.646530 659.803467,222.908524 
	C663.047668,222.222702 666.580322,221.475891 670.541382,220.658020 
M690.535278,275.984711 
	C698.828186,275.625122 703.111145,272.153595 704.549316,264.047150 
	C705.151184,260.654480 705.228699,257.109985 705.083557,253.653885 
	C704.492249,239.574539 693.445435,232.393677 679.867615,237.426819 
	C679.867615,246.615082 679.867615,255.915054 679.867615,265.215027 
	C679.867615,274.362915 679.867554,274.363251 689.179199,275.928619 
	C689.341675,275.955963 689.511230,275.941193 690.535278,275.984711 
z"/>
<path fill="#4E4E4E" opacity="1.000000" stroke="none" 
	d="
M1206.191650,276.884399 
	C1201.725708,271.367218 1197.476318,266.135925 1193.226807,260.904663 
	C1192.815430,261.086884 1192.404053,261.269104 1191.992676,261.451324 
	C1191.992676,271.461334 1191.992676,281.471344 1191.992676,291.740173 
	C1185.019775,291.740173 1178.591309,291.740173 1171.792236,291.740173 
	C1171.792236,257.736450 1171.792236,223.699799 1171.792236,189.253510 
	C1178.241821,188.200867 1184.739258,187.140396 1191.836914,185.981995 
	C1191.836914,205.142349 1191.836914,223.993378 1191.836914,242.844406 
	C1192.202026,243.011047 1192.567261,243.177673 1192.932373,243.344315 
	C1198.939453,236.837738 1205.060425,230.431030 1210.897949,223.775787 
	C1213.248413,221.095993 1215.554443,219.640533 1219.331299,219.885117 
	C1225.299805,220.271637 1231.311646,219.988037 1238.720337,219.988037 
	C1228.726929,230.900635 1219.409180,241.075363 1209.803345,251.564682 
	C1221.063232,263.542511 1231.332275,276.427612 1239.308716,292.008759 
	C1231.805542,292.008759 1224.920166,292.146484 1218.050049,291.885132 
	C1216.773926,291.836548 1215.228394,290.417389 1214.376465,289.224335 
	C1211.579224,285.307098 1209.044067,281.202759 1206.191650,276.884399 
z"/>
<path fill="#4D4D4D" opacity="1.000000" stroke="none" 
	d="
M811.651733,219.992050 
	C813.257080,220.064117 814.406982,220.136139 816.559692,220.270996 
	C810.496033,237.399750 804.826782,254.227768 798.553101,270.827362 
	C794.865295,280.584839 790.666992,290.210419 785.902466,299.486542 
	C777.251526,316.329346 761.808411,321.523804 743.761963,313.888123 
	C744.855713,308.888702 745.975830,303.768860 747.107605,298.595703 
	C750.873047,299.078064 754.415894,299.820374 757.975952,299.914551 
	C762.369751,300.030762 765.872864,298.232758 768.429688,294.329437 
	C770.741394,290.800262 771.124939,287.946899 769.049255,283.876831 
	C759.302612,264.765533 751.586121,244.808807 745.653198,224.178238 
	C745.295776,222.935196 745.040222,221.662842 744.678955,220.161850 
	C751.839478,220.161850 758.643433,220.161850 765.456726,220.161850 
	C770.339600,235.371262 775.217102,250.563797 780.094543,265.756317 
	C780.692200,265.763855 781.289795,265.771423 781.887390,265.778961 
	C786.358826,250.627426 790.830200,235.475891 795.399719,219.992004 
	C800.580994,219.992004 805.888611,219.992004 811.651733,219.992050 
z"/>
<path fill="#4D4D4D" opacity="1.000000" stroke="none" 
	d="
M1003.434326,222.152390 
	C1014.520264,219.339676 1025.316895,217.936462 1036.359863,219.876572 
	C1048.366699,221.986053 1056.092773,228.923050 1056.708740,240.955688 
	C1057.544556,257.286499 1056.916748,273.692230 1056.916748,290.487854 
	C1042.730957,293.721008 1028.309937,295.557068 1013.730408,292.803558 
	C1002.220398,290.629791 996.144653,282.962585 995.914246,271.498840 
	C995.681335,259.912262 1001.201233,252.176773 1012.938599,249.812149 
	C1020.798401,248.228714 1028.995728,248.320312 1037.447144,247.629257 
	C1038.808838,242.178482 1035.295776,236.764221 1027.873901,236.420807 
	C1020.494812,236.079391 1013.052124,237.113266 1004.653198,237.601227 
	C1004.205017,233.253159 1003.640686,227.777939 1003.434326,222.152390 
M1026.827026,277.998627 
	C1030.421631,277.998627 1034.016235,277.998627 1037.755371,277.998627 
	C1037.755371,272.403229 1037.755371,267.785675 1037.755371,261.948578 
	C1032.125000,262.324219 1026.641113,262.136902 1021.406982,263.190918 
	C1015.889221,264.302063 1013.757324,271.426422 1017.779724,274.885834 
	C1019.848999,276.665436 1023.174133,276.984650 1026.827026,277.998627 
z"/>
<path fill="#4D4D4D" opacity="1.000000" stroke="none" 
	d="
M511.097107,219.849121 
	C523.691650,222.336044 530.984680,228.743759 531.637756,240.620239 
	C532.544128,257.101135 531.865662,273.669220 531.865662,290.504852 
	C517.970581,293.630920 503.892059,295.355469 489.576935,292.982147 
	C478.326782,291.116974 471.364380,283.500885 470.936157,272.873138 
	C470.433624,260.399933 475.697662,252.389862 487.571716,249.925201 
	C495.573303,248.264328 503.934875,248.337845 512.486877,247.605362 
	C513.634766,241.904419 510.210052,236.730453 502.771851,236.408783 
	C495.400574,236.089996 487.970703,237.126129 479.872406,237.609421 
	C479.181000,233.334900 478.322906,228.029968 477.408630,222.377701 
	C488.609375,219.453262 499.490509,217.900925 511.097107,219.849121 
M500.975861,262.130737 
	C499.837891,262.359161 498.699921,262.587646 497.561951,262.816010 
	C493.491852,263.632874 491.004120,265.814941 490.989014,270.251312 
	C490.973389,274.832001 493.825134,277.065735 497.777222,277.433105 
	C502.654968,277.886475 507.606934,277.541473 512.731506,277.541473 
	C512.731506,272.475861 512.731506,267.866608 512.731506,262.586761 
	C509.047516,262.408813 505.452637,262.235199 500.975861,262.130737 
z"/>
<path fill="#4D4D4D" opacity="1.000000" stroke="none" 
	d="
M1260.847656,282.549469 
	C1261.458618,279.564270 1261.980713,276.978790 1262.564697,274.087585 
	C1267.551025,275.239532 1272.268799,276.644226 1277.088989,277.344177 
	C1281.002319,277.912384 1285.079712,278.003235 1289.001465,277.564545 
	C1290.760498,277.367737 1293.465698,275.532471 1293.676636,274.130219 
	C1293.944214,272.350281 1292.630371,269.405914 1291.084351,268.463593 
	C1287.299194,266.156799 1282.980103,264.731689 1278.892090,262.915405 
	C1271.490967,259.627106 1264.335571,256.069977 1261.960571,247.309708 
	C1258.691040,235.250031 1264.215942,224.893677 1276.205200,220.998627 
	C1287.939575,217.186356 1299.419189,219.046555 1311.220947,222.612274 
	C1310.049072,227.833084 1308.968018,232.649216 1307.806274,237.824783 
	C1304.252686,237.049637 1300.949585,236.099930 1297.579834,235.659485 
	C1294.306641,235.231644 1290.830688,234.710114 1287.697754,235.393829 
	C1285.355713,235.904953 1283.417358,238.266800 1281.299316,239.804535 
	C1282.747559,241.795380 1283.769409,244.626511 1285.724365,245.618759 
	C1291.474487,248.537018 1297.805542,250.319138 1303.526245,253.284622 
	C1315.306274,259.391052 1318.546143,276.337860 1309.413208,285.573700 
	C1306.108398,288.915771 1301.195801,291.473846 1296.585205,292.563293 
	C1284.198608,295.490112 1271.826904,294.445374 1259.299683,289.626160 
	C1259.790405,287.380890 1260.274658,285.165070 1260.847656,282.549469 
z"/>
<path fill="#4D4D4D" opacity="1.000000" stroke="none" 
	d="
M1143.555176,287.957092 
	C1142.957886,289.292358 1142.502686,290.825256 1141.669067,291.070038 
	C1127.867798,295.123322 1114.196533,296.031830 1101.224976,288.284088 
	C1090.196411,281.696869 1086.641357,270.978790 1086.197754,259.061005 
	C1084.899170,224.173187 1116.492920,211.580139 1142.515503,223.215149 
	C1141.943237,225.613403 1141.390381,228.143219 1140.728027,230.643997 
	C1140.094360,233.035980 1139.346924,235.397827 1138.518066,238.219955 
	C1127.330811,236.170761 1114.882690,231.692337 1108.747070,246.460144 
	C1105.156738,255.101807 1104.948120,264.769135 1111.600464,271.876862 
	C1119.760864,280.595673 1130.337402,276.739594 1140.964478,274.564636 
	C1141.777710,278.696716 1142.649414,283.126038 1143.555176,287.957092 
z"/>
<path fill="#FFCF60" opacity="1.000000" stroke="none" 
	d="
M384.479126,290.907532 
	C384.142090,280.669373 384.088867,270.266113 384.390869,259.245239 
	C386.899414,256.462128 389.052704,254.296616 391.205994,252.131073 
	C400.612244,252.131073 410.018494,252.131073 419.922241,252.131073 
	C419.922241,254.481979 419.922241,256.570343 419.802307,259.020935 
	C411.017914,267.228455 402.364075,275.085480 393.683136,282.912506 
	C390.744995,285.561615 387.738281,288.134613 384.479126,290.907532 
z"/>
<path fill="#FFFFFF" opacity="1.000000" stroke="none" 
	d="
M410.904602,233.808838 
	C402.131592,233.808823 393.358582,233.808823 384.123260,233.808823 
	C384.123260,221.910904 384.123260,210.197067 384.123260,198.246536 
	C376.931976,198.246536 370.203308,198.246536 362.923950,198.246536 
	C362.923950,224.580048 362.923950,250.793777 362.863922,277.467468 
	C348.229218,288.395905 334.019012,299.424530 318.993927,309.200714 
	C296.801270,323.640503 273.569397,336.362183 247.540649,342.542053 
	C239.251129,344.510223 230.429291,345.025208 221.873840,344.878174 
	C211.901825,344.706757 206.747528,338.625824 205.984406,328.577423 
	C204.725388,311.999359 209.700211,296.679138 215.813553,281.732697 
	C230.558960,245.681763 251.849152,213.561539 277.322449,184.379944 
	C294.783173,164.377426 313.061707,144.955902 332.303070,126.672699 
	C359.236420,101.080566 389.059143,79.058678 421.907104,61.407486 
	C438.928986,52.260616 456.505981,44.371223 475.593109,40.670319 
	C482.052368,39.417900 488.795990,38.906498 495.371124,39.140320 
	C506.348572,39.530693 511.701508,45.676159 512.225952,56.744347 
	C512.993530,72.943657 508.222992,87.926140 502.247833,102.608162 
	C488.585327,136.179382 468.596283,165.865570 445.812988,193.808426 
	C444.448822,195.481552 443.082153,197.152634 441.429321,199.010330 
	C439.021545,198.797485 436.910736,198.132004 434.778656,198.054718 
	C429.997803,197.881378 425.206390,198.000427 419.771210,198.000427 
	C419.771210,206.525742 419.771210,214.748444 419.469727,223.625000 
	C416.413696,227.455505 413.659149,230.632172 410.904602,233.808838 
z"/>
<path fill="#FBCF66" opacity="1.000000" stroke="none" 
	d="
M411.362976,233.887024 
	C413.659149,230.632172 416.413696,227.455505 419.428162,224.084656 
	C419.688049,227.097183 419.688049,230.303909 419.688049,233.965195 
	C416.955933,233.965195 414.388641,233.965195 411.362976,233.887024 
z"/>
<path fill="#FCFBF8" opacity="1.000000" stroke="none" 
	d="
M390.742737,252.069031 
	C389.052704,254.296616 386.899414,256.462128 384.465393,258.777313 
	C384.184662,256.843170 384.184662,254.759369 384.184662,252.006958 
	C386.231323,252.006958 388.255402,252.006958 390.742737,252.069031 
z"/>
<path fill="#FEFEFE" opacity="1.000000" stroke="none" 
	d="
M585.807495,274.108215 
	C584.895569,272.991547 583.949097,272.046631 583.940430,271.093079 
	C583.837219,259.801575 583.873962,248.508759 583.873962,237.329407 
	C598.101868,232.537018 608.549622,239.673096 609.130737,254.254440 
	C609.176697,255.407806 609.186890,256.564911 609.155212,257.718689 
	C608.719116,273.613678 601.656128,278.706909 585.807495,274.108215 
z"/>
<path fill="#FEFEFE" opacity="1.000000" stroke="none" 
	d="
M690.106384,275.965393 
	C689.511230,275.941193 689.341675,275.955963 689.179199,275.928619 
	C679.867554,274.363251 679.867615,274.362915 679.867615,265.215027 
	C679.867615,255.915054 679.867615,246.615082 679.867615,237.426819 
	C693.445435,232.393677 704.492249,239.574539 705.083557,253.653885 
	C705.228699,257.109985 705.151184,260.654480 704.549316,264.047150 
	C703.111145,272.153595 698.828186,275.625122 690.106384,275.965393 
z"/>
<path fill="#FCFBFB" opacity="1.000000" stroke="none" 
	d="
M1026.379395,277.981201 
	C1023.174133,276.984650 1019.848999,276.665436 1017.779724,274.885834 
	C1013.757324,271.426422 1015.889221,264.302063 1021.406982,263.190918 
	C1026.641113,262.136902 1032.125000,262.324219 1037.755371,261.948578 
	C1037.755371,267.785675 1037.755371,272.403229 1037.755371,277.998627 
	C1034.016235,277.998627 1030.421631,277.998627 1026.379395,277.981201 
z"/>
<path fill="#FCFBFB" opacity="1.000000" stroke="none" 
	d="
M501.416809,262.096130 
	C505.452637,262.235199 509.047516,262.408813 512.731506,262.586761 
	C512.731506,267.866608 512.731506,272.475861 512.731506,277.541473 
	C507.606934,277.541473 502.654968,277.886475 497.777222,277.433105 
	C493.825134,277.065735 490.973389,274.832001 490.989014,270.251312 
	C491.004120,265.814941 493.491852,263.632874 497.561951,262.816010 
	C498.699921,262.587646 499.837891,262.359161 501.416809,262.096130 
z"/>
</svg>