<?xml version="1.0" standalone="no"?>
<!DOCTYPE svg PUBLIC "-//W3C//DTD SVG 20010904//EN"
 "http://www.w3.org/TR/2001/REC-SVG-20010904/DTD/svg10.dtd">
<svg version="1.0" xmlns="http://www.w3.org/2000/svg"
 width="512.000000pt" height="512.000000pt" viewBox="0 0 512.000000 512.000000"
 preserveAspectRatio="xMidYMid meet">
<metadata>
Created by potrace 1.14, written by Peter Selinger 2001-2017
</metadata>
<g transform="translate(0.000000,512.000000) scale(0.100000,-0.100000)"
fill="#000000" stroke="none">
<path d="M19 5078 c-3 -247 1 -1294 6 -1354 24 -292 160 -583 369 -787 142
-140 263 -217 471 -301 49 -20 191 -56 219 -56 38 0 2 -17 -62 -29 -288 -55
-584 -242 -764 -484 -118 -158 -207 -360 -234 -527 -3 -19 -10 -55 -14 -80 -5
-25 -9 -359 -10 -742 0 -562 2 -698 12 -699 80 -4 1341 1 1389 6 516 53 943
398 1097 885 30 96 48 176 43 195 -2 7 1 7 7 0 5 -5 14 -41 21 -79 27 -155
117 -360 217 -496 201 -274 485 -448 834 -514 60 -11 220 -14 778 -15 l703 -2
-3 738 -4 738 -26 100 c-103 390 -333 677 -686 854 -115 58 -336 124 -377 112
-5 -1 -6 1 -2 5 4 4 13 9 20 10 69 11 98 16 132 25 277 72 538 246 707 472
124 167 196 335 244 567 4 19 9 361 11 760 l4 725 -658 -1 c-362 -1 -693 -5
-736 -8 -483 -40 -922 -375 -1086 -829 -36 -99 -59 -187 -60 -231 -1 -46 -11
-25 -32 70 -52 239 -162 445 -332 620 -195 202 -434 328 -720 378 -66 11 -221
15 -779 15 l-698 2 -1 -43z"/>
</g>
</svg>
