<?xml version="1.0" standalone="no"?>
<!DOCTYPE svg PUBLIC "-//W3C//DTD SVG 20010904//EN"
 "http://www.w3.org/TR/2001/REC-SVG-20010904/DTD/svg10.dtd">
<svg version="1.0" xmlns="http://www.w3.org/2000/svg"
 width="700.000000pt" height="700.000000pt" viewBox="0 0 700.000000 700.000000"
 preserveAspectRatio="xMidYMid meet">
<metadata>
Created by potrace 1.14, written by Peter Selinger 2001-2017
</metadata>
<g transform="translate(0.000000,700.000000) scale(0.100000,-0.100000)"
fill="#000000" stroke="none">
<path d="M26 6048 c1 -524 4 -966 7 -983 3 -16 9 -50 12 -75 4 -25 11 -65 17
-90 5 -25 12 -56 14 -70 7 -42 65 -212 96 -280 120 -269 297 -498 528 -681
209 -165 500 -295 763 -340 69 -11 79 -18 35 -24 -228 -28 -478 -122 -693
-258 -44 -28 -82 -54 -85 -57 -3 -3 -25 -21 -50 -40 -155 -119 -300 -282 -408
-457 -133 -215 -214 -444 -249 -703 -5 -30 -8 -485 -8 -1010 l0 -955 905 0
c498 1 943 4 990 7 96 7 263 39 359 69 508 155 923 538 1117 1030 43 108 104
332 104 379 0 30 12 19 15 -15 3 -20 15 -95 20 -115 1 -3 5 -21 9 -40 4 -19
21 -78 38 -130 206 -645 785 -1118 1463 -1198 33 -4 485 -7 1005 -7 l945 0 -1
915 c0 834 -3 1005 -19 1095 -28 156 -42 210 -88 335 -135 372 -408 703 -747
904 -187 111 -497 220 -639 225 -35 1 -22 8 29 16 25 3 63 10 85 15 22 5 54
11 72 14 41 8 222 69 282 96 101 47 170 85 266 148 296 196 510 457 658 802
31 72 68 199 94 320 l27 125 4 974 c2 615 0 976 -6 980 -13 8 -1886 6 -1927
-2 -16 -3 -64 -11 -105 -17 -91 -15 -291 -67 -305 -81 -5 -5 -15 -9 -23 -9
-27 0 -245 -111 -341 -173 -401 -263 -685 -694 -764 -1158 l-13 -74 -14 80
c-7 44 -14 82 -15 85 -1 3 -5 21 -9 40 -4 19 -21 78 -38 130 -184 573 -660
1016 -1243 1158 -44 11 -102 23 -130 27 -27 4 -61 10 -75 13 -14 3 -462 7
-995 9 l-970 4 1 -953z"/>
</g>
</svg>
